<svg xmlns="http://www.w3.org/2000/svg" xmlns:xlink="http://www.w3.org/1999/xlink" width="500" zoomAndPan="magnify" viewBox="0 0 375 374.999991" height="500" preserveAspectRatio="xMidYMid meet" version="1.0"><defs><filter x="0%" y="0%" width="100%" height="100%" id="1c765e3507"><feColorMatrix values="0 0 0 0 1 0 0 0 0 1 0 0 0 0 1 0 0 0 1 0" color-interpolation-filters="sRGB"/></filter><g/><clipPath id="9b20984208"><path d="M 0.75 4.183594 L 37.070312 4.183594 L 37.070312 44.394531 L 0.75 44.394531 Z M 0.75 4.183594 " clip-rule="nonzero"/></clipPath><clipPath id="159dbb8727"><path d="M 43 0.359375 L 140 0.359375 L 140 46 L 43 46 Z M 43 0.359375 " clip-rule="nonzero"/></clipPath><clipPath id="84a07f34b4"><rect x="0" width="97" y="0" height="46"/></clipPath><clipPath id="94ca13bb4b"><path d="M 139 1 L 298.320312 1 L 298.320312 47.160156 L 139 47.160156 Z M 139 1 " clip-rule="nonzero"/></clipPath><clipPath id="926ceb81f7"><rect x="0" width="160" y="0" height="47"/></clipPath><clipPath id="05b989b1c7"><rect x="0" width="299" y="0" height="48"/></clipPath><clipPath id="5b0f4eb7a0"><path d="M 35.3125 181 L 349.988281 181 L 349.988281 186.722656 L 35.3125 186.722656 Z M 35.3125 181 " clip-rule="nonzero"/></clipPath><clipPath id="3f450dc65a"><path d="M 341.714844 183.800781 C 330.117188 183.742188 318.542969 182.664062 306.945312 182.328125 C 68.550781 181.988281 52.628906 182.304688 37.007812 184.738281 C 36.488281 184.71875 35.652344 185.097656 35.433594 184.476562 C 35.394531 184.238281 35.53125 184.160156 35.730469 184.058594 C 36.589844 183.660156 37.503906 183.542969 38.421875 183.382812 C 65.125 179.515625 315.035156 181.03125 341.753906 183.679688 C 341.753906 183.722656 341.734375 183.761719 341.714844 183.800781 Z M 347.574219 186.390625 C 324.019531 184.238281 77.519531 181.90625 53.945312 184.558594 C 53.945312 184.597656 53.964844 184.636719 53.964844 184.675781 C 122.144531 182.304688 325.636719 184.757812 349.925781 186.671875 C 349.089844 186.570312 348.332031 186.472656 347.574219 186.390625 Z M 347.574219 186.390625 " clip-rule="nonzero"/></clipPath><clipPath id="96f71f5b79"><path d="M 0.3125 0 L 314.988281 0 L 314.988281 5.71875 L 0.3125 5.71875 Z M 0.3125 0 " clip-rule="nonzero"/></clipPath><clipPath id="75a27e997f"><path d="M 306.714844 2.800781 C 295.117188 2.742188 283.542969 1.664062 271.945312 1.328125 C 33.550781 0.988281 17.628906 1.304688 2.007812 3.738281 C 1.488281 3.71875 0.652344 4.097656 0.433594 3.476562 C 0.394531 3.238281 0.53125 3.160156 0.730469 3.058594 C 1.589844 2.660156 2.503906 2.542969 3.421875 2.382812 C 30.125 -1.484375 280.035156 0.03125 306.753906 2.679688 C 306.753906 2.722656 306.734375 2.761719 306.714844 2.800781 Z M 312.574219 5.390625 C 289.019531 3.238281 42.519531 0.90625 18.945312 3.558594 C 18.945312 3.597656 18.964844 3.636719 18.964844 3.675781 C 87.144531 1.304688 290.636719 3.757812 314.925781 5.671875 C 314.089844 5.570312 313.332031 5.472656 312.574219 5.390625 Z M 312.574219 5.390625 " clip-rule="nonzero"/></clipPath><clipPath id="02549139be"><rect x="0" width="315" y="0" height="6"/></clipPath><mask id="44f582fe16"><g filter="url(#1c765e3507)"><rect x="-37.5" width="450" fill="#000000" y="-37.499999" height="449.999989" fill-opacity="0.6"/></g></mask><clipPath id="cad08b9da5"><rect x="0" width="226" y="0" height="13"/></clipPath></defs><g transform="matrix(1, 0, 0, 1, 36, 135)"><g clip-path="url(#05b989b1c7)"><g clip-path="url(#9b20984208)"><path fill="#06b6d4" d="M 19.015625 35.105469 L 37.242188 22.753906 L 37.242188 4.226562 L 0.757812 4.226562 L 0.757812 8.210938 L 33.265625 8.210938 L 33.265625 20.660156 L 29.285156 23.328125 L 29.285156 12.183594 L 0.757812 12.1875 L 0.757812 32.359375 L 19.015625 44.695312 L 37.242188 32.347656 L 37.242188 27.570312 L 19.015625 39.878906 L 4.730469 30.246094 L 4.730469 16.164062 L 8.714844 16.164062 L 8.714844 28.140625 Z M 18.996094 15.921875 C 21.472656 15.921875 23.484375 17.933594 23.484375 20.410156 C 23.484375 22.082031 22.574219 23.535156 21.222656 24.308594 L 22.257812 28.855469 L 15.738281 28.855469 L 16.773438 24.308594 C 15.421875 23.535156 14.507812 22.082031 14.507812 20.410156 C 14.503906 17.929688 16.519531 15.921875 18.996094 15.921875 Z M 18.996094 15.921875 " fill-opacity="1" fill-rule="nonzero"/></g><g clip-path="url(#159dbb8727)"><g transform="matrix(1, 0, 0, 1, 43, 0)"><g clip-path="url(#84a07f34b4)"><g fill="#2f2f2f" fill-opacity="1"><g transform="translate(0.826293, 38.134545)"><g><path d="M 31.5 -24 L 31.5 -18 C 31.5 -17.175781 31.203125 -16.46875 30.609375 -15.875 C 30.023438 -15.289062 29.320312 -15 28.5 -15 C 29.320312 -15 30.023438 -14.703125 30.609375 -14.109375 C 31.203125 -13.523438 31.5 -12.820312 31.5 -12 L 31.5 -6 C 31.5 -4.925781 31.226562 -3.929688 30.6875 -3.015625 C 30.15625 -2.109375 29.4375 -1.378906 28.53125 -0.828125 C 27.632812 -0.273438 26.625 0 25.5 0 L 1.5 0 L 1.5 -30 L 25.5 -30 C 26.625 -30 27.632812 -29.722656 28.53125 -29.171875 C 29.4375 -28.617188 30.15625 -27.894531 30.6875 -27 C 31.226562 -26.101562 31.5 -25.101562 31.5 -24 Z M 25.5 -24 L 7.5 -24 L 7.5 -18 L 25.5 -18 Z M 7.5 -6 L 25.5 -6 L 25.5 -12 L 7.5 -12 Z M 7.5 -6 "/></g></g></g><g fill="#2f2f2f" fill-opacity="1"><g transform="translate(32.464267, 38.134545)"><g><path d="M 31.5 0 L 1.5 0 L 1.5 -6 L 13.5 -6 L 13.5 -24 L 1.5 -24 L 1.5 -30 L 31.5 -30 L 31.5 -24 L 19.5 -24 L 19.5 -6 L 31.5 -6 Z M 31.5 0 "/></g></g></g><g fill="#2f2f2f" fill-opacity="1"><g transform="translate(64.10224, 38.134545)"><g><path d="M 31.5 -30 L 31.5 -24 L 19.5 -24 L 19.5 0 L 13.5 0 L 13.5 -24 L 1.5 -24 L 1.5 -30 Z M 31.5 -30 "/></g></g></g></g></g></g><g clip-path="url(#94ca13bb4b)"><g transform="matrix(1, 0, 0, 1, 139, 1)"><g clip-path="url(#926ceb81f7)"><g fill="#2f2f2f" fill-opacity="1"><g transform="translate(0.285056, 38.300973)"><g><path d="M 25.453125 -17.96875 L 25.453125 -29.953125 L 31.453125 -29.953125 L 31.453125 0 L 25.453125 0 L 25.453125 -11.984375 L 7.484375 -11.984375 L 7.484375 0 L 1.5 0 L 1.5 -29.953125 L 7.484375 -29.953125 L 7.484375 -17.96875 Z M 25.453125 -17.96875 "/></g></g></g><g fill="#2f2f2f" fill-opacity="1"><g transform="translate(31.882355, 38.300973)"><g><path d="M 7.484375 -29.953125 L 25.453125 -29.953125 C 26.554688 -29.953125 27.5625 -29.679688 28.46875 -29.140625 C 29.382812 -28.609375 30.109375 -27.882812 30.640625 -26.96875 C 31.179688 -26.0625 31.453125 -25.054688 31.453125 -23.953125 L 31.453125 0 L 25.453125 0 L 25.453125 -11.984375 L 7.484375 -11.984375 L 7.484375 0 L 1.5 0 L 1.5 -23.953125 C 1.5 -25.054688 1.765625 -26.0625 2.296875 -26.96875 C 2.835938 -27.882812 3.5625 -28.609375 4.46875 -29.140625 C 5.382812 -29.679688 6.390625 -29.953125 7.484375 -29.953125 Z M 7.484375 -23.953125 L 7.484375 -17.96875 L 25.453125 -17.96875 L 25.453125 -23.953125 Z M 7.484375 -23.953125 "/></g></g></g><g fill="#2f2f2f" fill-opacity="1"><g transform="translate(63.479654, 38.300973)"><g><path d="M 16.46875 0 C 15.125 0 13.878906 -0.472656 12.734375 -1.421875 L 2.625 -10.109375 C 1.875 -10.785156 1.5 -11.582031 1.5 -12.5 L 1.5 -29.953125 L 7.484375 -29.953125 L 7.484375 -13.859375 L 16.46875 -6.109375 L 25.453125 -13.859375 L 25.453125 -29.953125 L 31.453125 -29.953125 L 31.40625 -12.5 C 31.40625 -11.550781 31.046875 -10.753906 30.328125 -10.109375 L 20.21875 -1.421875 C 19.113281 -0.472656 17.863281 0 16.46875 0 Z M 16.46875 0 "/></g></g></g><g fill="#2f2f2f" fill-opacity="1"><g transform="translate(95.076952, 38.300973)"><g><path d="M 31.453125 -29.953125 L 31.453125 -23.953125 L 7.484375 -23.953125 L 7.484375 -17.96875 L 31.453125 -17.96875 L 31.453125 -11.984375 L 7.484375 -11.984375 L 7.484375 -5.984375 L 31.453125 -5.984375 L 31.453125 0 L 7.484375 0 C 6.390625 0 5.382812 -0.265625 4.46875 -0.796875 C 3.5625 -1.335938 2.835938 -2.0625 2.296875 -2.96875 C 1.765625 -3.882812 1.5 -4.890625 1.5 -5.984375 L 1.5 -23.953125 C 1.5 -25.054688 1.765625 -26.0625 2.296875 -26.96875 C 2.835938 -27.882812 3.5625 -28.609375 4.46875 -29.140625 C 5.382812 -29.679688 6.390625 -29.953125 7.484375 -29.953125 Z M 31.453125 -29.953125 "/></g></g></g><g fill="#2f2f2f" fill-opacity="1"><g transform="translate(126.674251, 38.300973)"><g><path d="M 7.484375 0 L 1.5 0 L 1.5 -26.953125 C 1.5 -27.773438 1.789062 -28.476562 2.375 -29.0625 C 2.957031 -29.65625 3.664062 -29.953125 4.5 -29.953125 C 5.320312 -29.953125 6.03125 -29.648438 6.625 -29.046875 L 25.453125 -10.21875 L 25.453125 -29.953125 L 31.453125 -29.953125 L 31.453125 -3 C 31.453125 -2.175781 31.15625 -1.46875 30.5625 -0.875 C 29.976562 -0.289062 29.273438 0 28.453125 0 C 27.628906 0 26.914062 -0.300781 26.3125 -0.90625 L 7.484375 -19.734375 Z M 7.484375 0 "/></g></g></g></g></g></g></g></g><g clip-path="url(#5b0f4eb7a0)"><g clip-path="url(#3f450dc65a)"><g transform="matrix(1, 0, 0, 1, 35, 181)"><g clip-path="url(#02549139be)"><g clip-path="url(#96f71f5b79)"><g clip-path="url(#75a27e997f)"><rect x="-117.5" width="540" fill="#06b6d4" height="539.999987" y="-263.499998" fill-opacity="1"/></g></g></g></g></g></g><g mask="url(#44f582fe16)"><g transform="matrix(1, 0, 0, 1, 74, 187)"><g clip-path="url(#cad08b9da5)"><g fill="#000000" fill-opacity="1"><g transform="translate(1.214541, 9.050588)"><g><path d="M 2.875 -5.515625 L 1.984375 -2.5625 L 3.84375 -2.5625 L 2.890625 -5.515625 Z M 3.75 -6.3125 L 3.75 -6.171875 C 3.65625 -6.140625 3.609375 -6.0625 3.609375 -5.9375 C 3.609375 -5.863281 3.625 -5.78125 3.65625 -5.6875 C 3.6875 -5.59375 3.71875 -5.507812 3.75 -5.4375 L 5.4375 -0.5 C 5.476562 -0.382812 5.507812 -0.300781 5.53125 -0.25 C 5.5625 -0.207031 5.609375 -0.171875 5.671875 -0.140625 L 5.671875 0 L 4.421875 0 L 4.421875 -0.140625 C 4.523438 -0.179688 4.578125 -0.25 4.578125 -0.34375 C 4.578125 -0.425781 4.503906 -0.675781 4.359375 -1.09375 C 4.285156 -1.300781 4.226562 -1.460938 4.1875 -1.578125 C 4.144531 -1.691406 4.117188 -1.78125 4.109375 -1.84375 L 1.734375 -1.84375 C 1.703125 -1.695312 1.660156 -1.550781 1.609375 -1.40625 C 1.554688 -1.269531 1.503906 -1.117188 1.453125 -0.953125 C 1.347656 -0.640625 1.296875 -0.453125 1.296875 -0.390625 C 1.296875 -0.347656 1.304688 -0.289062 1.328125 -0.21875 C 1.359375 -0.15625 1.40625 -0.117188 1.46875 -0.109375 L 1.46875 0 L 0.328125 0 L 0.328125 -0.09375 C 0.367188 -0.132812 0.398438 -0.164062 0.421875 -0.1875 C 0.441406 -0.21875 0.46875 -0.28125 0.5 -0.375 L 2.109375 -5.359375 C 2.148438 -5.492188 2.1875 -5.601562 2.21875 -5.6875 C 2.25 -5.769531 2.265625 -5.851562 2.265625 -5.9375 C 2.265625 -6.070312 2.207031 -6.148438 2.09375 -6.171875 L 2.09375 -6.3125 Z M 3.75 -6.3125 "/></g></g></g><g fill="#000000" fill-opacity="1"><g transform="translate(6.776872, 9.050588)"><g/></g></g><g fill="#000000" fill-opacity="1"><g transform="translate(9.342157, 9.050588)"><g><path d="M 3 -6.390625 C 3.289062 -6.390625 3.546875 -6.363281 3.765625 -6.3125 C 3.984375 -6.257812 4.164062 -6.207031 4.3125 -6.15625 C 4.46875 -6.101562 4.59375 -6.050781 4.6875 -6 C 4.789062 -5.945312 4.875 -5.921875 4.9375 -5.921875 C 4.96875 -5.921875 4.992188 -5.925781 5.015625 -5.9375 C 5.035156 -5.957031 5.054688 -5.972656 5.078125 -5.984375 L 5.1875 -5.921875 L 4.578125 -4.78125 L 4.453125 -4.84375 C 4.453125 -5.101562 4.316406 -5.300781 4.046875 -5.4375 C 3.773438 -5.570312 3.4375 -5.640625 3.03125 -5.640625 C 2.832031 -5.640625 2.644531 -5.617188 2.46875 -5.578125 C 2.289062 -5.535156 2.132812 -5.46875 2 -5.375 C 1.875 -5.289062 1.769531 -5.1875 1.6875 -5.0625 C 1.613281 -4.9375 1.578125 -4.789062 1.578125 -4.625 C 1.578125 -4.394531 1.6875 -4.21875 1.90625 -4.09375 C 2.125 -3.976562 2.4375 -3.867188 2.84375 -3.765625 C 3.175781 -3.679688 3.492188 -3.59375 3.796875 -3.5 C 4.097656 -3.414062 4.359375 -3.300781 4.578125 -3.15625 C 4.804688 -3.007812 4.984375 -2.828125 5.109375 -2.609375 C 5.242188 -2.398438 5.3125 -2.132812 5.3125 -1.8125 C 5.3125 -1.21875 5.101562 -0.753906 4.6875 -0.421875 C 4.269531 -0.0859375 3.695312 0.078125 2.96875 0.078125 C 2.664062 0.078125 2.375 0.0390625 2.09375 -0.03125 C 1.8125 -0.113281 1.535156 -0.21875 1.265625 -0.34375 C 1.191406 -0.375 1.140625 -0.398438 1.109375 -0.421875 C 1.078125 -0.441406 1.035156 -0.453125 0.984375 -0.453125 C 0.898438 -0.453125 0.828125 -0.414062 0.765625 -0.34375 L 0.625 -0.390625 L 1.375 -1.734375 L 1.5 -1.6875 C 1.5 -1.351562 1.632812 -1.097656 1.90625 -0.921875 C 2.175781 -0.753906 2.550781 -0.671875 3.03125 -0.671875 C 3.207031 -0.671875 3.382812 -0.691406 3.5625 -0.734375 C 3.738281 -0.773438 3.898438 -0.835938 4.046875 -0.921875 C 4.191406 -1.015625 4.304688 -1.128906 4.390625 -1.265625 C 4.484375 -1.398438 4.53125 -1.5625 4.53125 -1.75 C 4.53125 -1.914062 4.484375 -2.054688 4.390625 -2.171875 C 4.304688 -2.296875 4.191406 -2.40625 4.046875 -2.5 C 3.898438 -2.59375 3.71875 -2.671875 3.5 -2.734375 C 3.289062 -2.796875 3.0625 -2.859375 2.8125 -2.921875 C 2.539062 -2.992188 2.28125 -3.070312 2.03125 -3.15625 C 1.789062 -3.238281 1.578125 -3.34375 1.390625 -3.46875 C 1.203125 -3.59375 1.054688 -3.75 0.953125 -3.9375 C 0.847656 -4.125 0.796875 -4.347656 0.796875 -4.609375 C 0.796875 -5.171875 0.992188 -5.609375 1.390625 -5.921875 C 1.796875 -6.234375 2.332031 -6.390625 3 -6.390625 Z M 3 -6.390625 "/></g></g></g><g fill="#000000" fill-opacity="1"><g transform="translate(14.904489, 9.050588)"><g><path d="M 1.828125 -2.015625 L 3.484375 -2.015625 L 2.6875 -4.75 L 2.65625 -4.75 Z M 3.4375 -5.28125 L 3.4375 -5.140625 C 3.375 -5.109375 3.34375 -5.039062 3.34375 -4.9375 C 3.34375 -4.882812 3.351562 -4.828125 3.375 -4.765625 C 3.394531 -4.710938 3.425781 -4.613281 3.46875 -4.46875 L 4.734375 -0.4375 C 4.785156 -0.269531 4.867188 -0.171875 4.984375 -0.140625 L 4.984375 0 L 3.890625 0 L 3.890625 -0.140625 C 3.929688 -0.148438 3.960938 -0.171875 3.984375 -0.203125 C 4.003906 -0.242188 4.015625 -0.285156 4.015625 -0.328125 C 4.015625 -0.347656 4.003906 -0.382812 3.984375 -0.4375 C 3.972656 -0.488281 3.957031 -0.554688 3.9375 -0.640625 L 3.6875 -1.4375 L 1.625 -1.4375 L 1.40625 -0.734375 C 1.363281 -0.609375 1.332031 -0.507812 1.3125 -0.4375 C 1.300781 -0.375 1.296875 -0.320312 1.296875 -0.28125 C 1.296875 -0.207031 1.347656 -0.160156 1.453125 -0.140625 L 1.453125 0 L 0.34375 0 L 0.34375 -0.140625 C 0.4375 -0.171875 0.503906 -0.210938 0.546875 -0.265625 C 0.585938 -0.328125 0.640625 -0.453125 0.703125 -0.640625 L 1.9375 -4.46875 C 2.007812 -4.644531 2.050781 -4.757812 2.0625 -4.8125 C 2.070312 -4.863281 2.078125 -4.90625 2.078125 -4.9375 C 2.078125 -5.019531 2.03125 -5.085938 1.9375 -5.140625 L 1.9375 -5.28125 Z M 3.4375 -5.28125 "/></g></g></g><g fill="#000000" fill-opacity="1"><g transform="translate(19.795487, 9.050588)"><g><path d="M 4.5 -4.421875 L 4.359375 -4.421875 C 4.335938 -4.523438 4.296875 -4.597656 4.234375 -4.640625 C 4.179688 -4.679688 4.109375 -4.703125 4.015625 -4.703125 L 1.78125 -4.703125 L 1.78125 -2.96875 L 3.171875 -2.96875 C 3.273438 -2.96875 3.351562 -2.988281 3.40625 -3.03125 C 3.457031 -3.082031 3.488281 -3.164062 3.5 -3.28125 L 3.640625 -3.28125 L 3.640625 -2.109375 L 3.5 -2.109375 C 3.488281 -2.222656 3.453125 -2.300781 3.390625 -2.34375 C 3.335938 -2.382812 3.265625 -2.40625 3.171875 -2.40625 L 1.78125 -2.40625 L 1.78125 -0.578125 C 1.78125 -0.429688 1.796875 -0.328125 1.828125 -0.265625 C 1.859375 -0.203125 1.929688 -0.160156 2.046875 -0.140625 L 2.046875 0 L 0.8125 0 L 0.8125 -0.140625 C 0.90625 -0.160156 0.960938 -0.203125 0.984375 -0.265625 C 1.015625 -0.335938 1.03125 -0.441406 1.03125 -0.578125 L 1.03125 -4.6875 C 1.03125 -4.84375 1.015625 -4.953125 0.984375 -5.015625 C 0.960938 -5.078125 0.90625 -5.117188 0.8125 -5.140625 L 0.8125 -5.28125 L 4.015625 -5.28125 C 4.117188 -5.28125 4.195312 -5.289062 4.25 -5.3125 C 4.300781 -5.34375 4.335938 -5.40625 4.359375 -5.5 L 4.5 -5.5 Z M 4.5 -4.421875 "/></g></g></g><g fill="#000000" fill-opacity="1"><g transform="translate(24.027134, 9.050588)"><g><path d="M 4.59375 -4.421875 L 4.453125 -4.421875 C 4.429688 -4.523438 4.394531 -4.597656 4.34375 -4.640625 C 4.289062 -4.679688 4.210938 -4.703125 4.109375 -4.703125 L 1.921875 -4.703125 L 1.921875 -2.96875 L 3.34375 -2.96875 C 3.4375 -2.96875 3.507812 -2.988281 3.5625 -3.03125 C 3.613281 -3.082031 3.648438 -3.164062 3.671875 -3.28125 L 3.8125 -3.28125 L 3.8125 -2.109375 L 3.671875 -2.109375 C 3.648438 -2.222656 3.613281 -2.300781 3.5625 -2.34375 C 3.507812 -2.382812 3.4375 -2.40625 3.34375 -2.40625 L 1.921875 -2.40625 L 1.921875 -0.578125 L 4.21875 -0.578125 C 4.320312 -0.578125 4.398438 -0.597656 4.453125 -0.640625 C 4.503906 -0.679688 4.539062 -0.765625 4.5625 -0.890625 L 4.703125 -0.890625 L 4.703125 0.21875 L 4.5625 0.21875 C 4.539062 0.125 4.492188 0.0625 4.421875 0.03125 C 4.359375 0.0078125 4.25 0 4.09375 0 L 0.953125 0 L 0.953125 -0.140625 C 1.046875 -0.160156 1.101562 -0.203125 1.125 -0.265625 C 1.15625 -0.335938 1.171875 -0.441406 1.171875 -0.578125 L 1.171875 -4.703125 C 1.171875 -4.859375 1.15625 -4.960938 1.125 -5.015625 C 1.09375 -5.078125 1.035156 -5.117188 0.953125 -5.140625 L 0.953125 -5.28125 L 4.078125 -5.28125 C 4.171875 -5.28125 4.25 -5.289062 4.3125 -5.3125 C 4.382812 -5.34375 4.429688 -5.40625 4.453125 -5.5 L 4.59375 -5.5 Z M 4.59375 -4.421875 "/></g></g></g><g fill="#000000" fill-opacity="1"><g transform="translate(28.918133, 9.050588)"><g/></g></g><g fill="#000000" fill-opacity="1"><g transform="translate(31.483418, 9.050588)"><g><path d="M 1.984375 -5.28125 L 1.984375 -5.140625 C 1.890625 -5.117188 1.828125 -5.078125 1.796875 -5.015625 C 1.773438 -4.953125 1.765625 -4.851562 1.765625 -4.71875 L 1.765625 -2.96875 L 4.234375 -2.96875 L 4.234375 -4.71875 C 4.234375 -4.851562 4.21875 -4.953125 4.1875 -5.015625 C 4.164062 -5.078125 4.109375 -5.117188 4.015625 -5.140625 L 4.015625 -5.28125 L 5.203125 -5.28125 L 5.203125 -5.140625 C 5.109375 -5.117188 5.046875 -5.078125 5.015625 -5.015625 C 4.992188 -4.953125 4.984375 -4.851562 4.984375 -4.71875 L 4.984375 -0.5625 C 4.984375 -0.425781 4.992188 -0.328125 5.015625 -0.265625 C 5.046875 -0.203125 5.109375 -0.160156 5.203125 -0.140625 L 5.203125 0 L 4.015625 0 L 4.015625 -0.140625 C 4.109375 -0.160156 4.164062 -0.203125 4.1875 -0.265625 C 4.21875 -0.328125 4.234375 -0.425781 4.234375 -0.5625 L 4.234375 -2.40625 L 1.765625 -2.40625 L 1.765625 -0.5625 C 1.765625 -0.425781 1.773438 -0.328125 1.796875 -0.265625 C 1.828125 -0.203125 1.890625 -0.160156 1.984375 -0.140625 L 1.984375 0 L 0.796875 0 L 0.796875 -0.140625 C 0.890625 -0.160156 0.945312 -0.203125 0.96875 -0.265625 C 1 -0.328125 1.015625 -0.425781 1.015625 -0.5625 L 1.015625 -4.71875 C 1.015625 -4.851562 1 -4.953125 0.96875 -5.015625 C 0.945312 -5.078125 0.890625 -5.117188 0.796875 -5.140625 L 0.796875 -5.28125 Z M 1.984375 -5.28125 "/></g></g></g><g fill="#000000" fill-opacity="1"><g transform="translate(37.045749, 9.050588)"><g><path d="M 1.828125 -2.015625 L 3.484375 -2.015625 L 2.6875 -4.75 L 2.65625 -4.75 Z M 3.4375 -5.28125 L 3.4375 -5.140625 C 3.375 -5.109375 3.34375 -5.039062 3.34375 -4.9375 C 3.34375 -4.882812 3.351562 -4.828125 3.375 -4.765625 C 3.394531 -4.710938 3.425781 -4.613281 3.46875 -4.46875 L 4.734375 -0.4375 C 4.785156 -0.269531 4.867188 -0.171875 4.984375 -0.140625 L 4.984375 0 L 3.890625 0 L 3.890625 -0.140625 C 3.929688 -0.148438 3.960938 -0.171875 3.984375 -0.203125 C 4.003906 -0.242188 4.015625 -0.285156 4.015625 -0.328125 C 4.015625 -0.347656 4.003906 -0.382812 3.984375 -0.4375 C 3.972656 -0.488281 3.957031 -0.554688 3.9375 -0.640625 L 3.6875 -1.4375 L 1.625 -1.4375 L 1.40625 -0.734375 C 1.363281 -0.609375 1.332031 -0.507812 1.3125 -0.4375 C 1.300781 -0.375 1.296875 -0.320312 1.296875 -0.28125 C 1.296875 -0.207031 1.347656 -0.160156 1.453125 -0.140625 L 1.453125 0 L 0.34375 0 L 0.34375 -0.140625 C 0.4375 -0.171875 0.503906 -0.210938 0.546875 -0.265625 C 0.585938 -0.328125 0.640625 -0.453125 0.703125 -0.640625 L 1.9375 -4.46875 C 2.007812 -4.644531 2.050781 -4.757812 2.0625 -4.8125 C 2.070312 -4.863281 2.078125 -4.90625 2.078125 -4.9375 C 2.078125 -5.019531 2.03125 -5.085938 1.9375 -5.140625 L 1.9375 -5.28125 Z M 3.4375 -5.28125 "/></g></g></g><g fill="#000000" fill-opacity="1"><g transform="translate(41.936748, 9.050588)"><g><path d="M 1.5625 -5.28125 L 1.5625 -5.140625 C 1.445312 -5.109375 1.390625 -5.039062 1.390625 -4.9375 C 1.390625 -4.90625 1.394531 -4.863281 1.40625 -4.8125 C 1.425781 -4.757812 1.453125 -4.6875 1.484375 -4.59375 L 2.671875 -0.796875 L 2.703125 -0.796875 L 3.6875 -4.203125 C 3.738281 -4.378906 3.78125 -4.515625 3.8125 -4.609375 C 3.84375 -4.710938 3.859375 -4.804688 3.859375 -4.890625 C 3.859375 -5.023438 3.773438 -5.109375 3.609375 -5.140625 L 3.609375 -5.28125 L 4.90625 -5.28125 L 4.90625 -5.140625 C 4.789062 -5.128906 4.703125 -5.101562 4.640625 -5.0625 C 4.585938 -5.03125 4.535156 -4.925781 4.484375 -4.75 L 3.328125 -0.75 C 3.296875 -0.632812 3.269531 -0.546875 3.25 -0.484375 C 3.226562 -0.429688 3.21875 -0.378906 3.21875 -0.328125 C 3.21875 -0.242188 3.257812 -0.179688 3.34375 -0.140625 L 3.34375 0 L 2 0 L 2 -0.15625 C 2.0625 -0.175781 2.09375 -0.21875 2.09375 -0.28125 C 2.09375 -0.320312 2.054688 -0.457031 1.984375 -0.6875 L 0.8125 -4.375 C 0.78125 -4.476562 0.753906 -4.570312 0.734375 -4.65625 C 0.710938 -4.75 0.695312 -4.804688 0.6875 -4.828125 C 0.644531 -4.929688 0.597656 -5.003906 0.546875 -5.046875 C 0.503906 -5.085938 0.441406 -5.117188 0.359375 -5.140625 L 0.359375 -5.28125 Z M 1.5625 -5.28125 "/></g></g></g><g fill="#000000" fill-opacity="1"><g transform="translate(46.827746, 9.050588)"><g><path d="M 4.59375 -4.421875 L 4.453125 -4.421875 C 4.429688 -4.523438 4.394531 -4.597656 4.34375 -4.640625 C 4.289062 -4.679688 4.210938 -4.703125 4.109375 -4.703125 L 1.921875 -4.703125 L 1.921875 -2.96875 L 3.34375 -2.96875 C 3.4375 -2.96875 3.507812 -2.988281 3.5625 -3.03125 C 3.613281 -3.082031 3.648438 -3.164062 3.671875 -3.28125 L 3.8125 -3.28125 L 3.8125 -2.109375 L 3.671875 -2.109375 C 3.648438 -2.222656 3.613281 -2.300781 3.5625 -2.34375 C 3.507812 -2.382812 3.4375 -2.40625 3.34375 -2.40625 L 1.921875 -2.40625 L 1.921875 -0.578125 L 4.21875 -0.578125 C 4.320312 -0.578125 4.398438 -0.597656 4.453125 -0.640625 C 4.503906 -0.679688 4.539062 -0.765625 4.5625 -0.890625 L 4.703125 -0.890625 L 4.703125 0.21875 L 4.5625 0.21875 C 4.539062 0.125 4.492188 0.0625 4.421875 0.03125 C 4.359375 0.0078125 4.25 0 4.09375 0 L 0.953125 0 L 0.953125 -0.140625 C 1.046875 -0.160156 1.101562 -0.203125 1.125 -0.265625 C 1.15625 -0.335938 1.171875 -0.441406 1.171875 -0.578125 L 1.171875 -4.703125 C 1.171875 -4.859375 1.15625 -4.960938 1.125 -5.015625 C 1.09375 -5.078125 1.035156 -5.117188 0.953125 -5.140625 L 0.953125 -5.28125 L 4.078125 -5.28125 C 4.171875 -5.28125 4.25 -5.289062 4.3125 -5.3125 C 4.382812 -5.34375 4.429688 -5.40625 4.453125 -5.5 L 4.59375 -5.5 Z M 4.59375 -4.421875 "/></g></g></g><g fill="#000000" fill-opacity="1"><g transform="translate(51.718745, 9.050588)"><g><path d="M 2.296875 -5.28125 L 2.296875 -5.140625 C 2.160156 -5.117188 2.09375 -5.0625 2.09375 -4.96875 C 2.09375 -4.914062 2.113281 -4.863281 2.15625 -4.8125 L 4.25 -1.421875 L 4.265625 -1.421875 L 4.265625 -4.6875 C 4.265625 -4.820312 4.25 -4.925781 4.21875 -5 C 4.195312 -5.070312 4.140625 -5.117188 4.046875 -5.140625 L 4.046875 -5.28125 L 5.15625 -5.28125 L 5.15625 -5.140625 C 5.070312 -5.117188 5.015625 -5.070312 4.984375 -5 C 4.953125 -4.9375 4.9375 -4.835938 4.9375 -4.703125 L 4.9375 -0.59375 C 4.9375 -0.425781 4.953125 -0.3125 4.984375 -0.25 C 5.023438 -0.195312 5.09375 -0.160156 5.1875 -0.140625 L 5.1875 0 L 4.015625 0 L 4.015625 -0.140625 C 4.054688 -0.140625 4.09375 -0.144531 4.125 -0.15625 C 4.164062 -0.175781 4.1875 -0.203125 4.1875 -0.234375 C 4.1875 -0.304688 4.144531 -0.398438 4.0625 -0.515625 C 3.988281 -0.640625 3.867188 -0.84375 3.703125 -1.125 L 1.734375 -4.296875 L 1.71875 -4.296875 L 1.71875 -0.578125 C 1.71875 -0.429688 1.734375 -0.328125 1.765625 -0.265625 C 1.796875 -0.203125 1.859375 -0.160156 1.953125 -0.140625 L 1.953125 0 L 0.765625 0 L 0.765625 -0.140625 C 0.878906 -0.160156 0.953125 -0.195312 0.984375 -0.25 C 1.023438 -0.300781 1.046875 -0.40625 1.046875 -0.5625 L 1.046875 -4.6875 C 1.046875 -4.84375 1.03125 -4.953125 1 -5.015625 C 0.96875 -5.078125 0.910156 -5.117188 0.828125 -5.140625 L 0.828125 -5.28125 Z M 2.296875 -5.28125 "/></g></g></g><g fill="#000000" fill-opacity="1"><g transform="translate(57.281077, 9.050588)"><g/></g></g><g fill="#000000" fill-opacity="1"><g transform="translate(59.846361, 9.050588)"><g><path d="M 4.5 -4.421875 L 4.359375 -4.421875 C 4.335938 -4.523438 4.296875 -4.597656 4.234375 -4.640625 C 4.179688 -4.679688 4.109375 -4.703125 4.015625 -4.703125 L 1.78125 -4.703125 L 1.78125 -2.96875 L 3.171875 -2.96875 C 3.273438 -2.96875 3.351562 -2.988281 3.40625 -3.03125 C 3.457031 -3.082031 3.488281 -3.164062 3.5 -3.28125 L 3.640625 -3.28125 L 3.640625 -2.109375 L 3.5 -2.109375 C 3.488281 -2.222656 3.453125 -2.300781 3.390625 -2.34375 C 3.335938 -2.382812 3.265625 -2.40625 3.171875 -2.40625 L 1.78125 -2.40625 L 1.78125 -0.578125 C 1.78125 -0.429688 1.796875 -0.328125 1.828125 -0.265625 C 1.859375 -0.203125 1.929688 -0.160156 2.046875 -0.140625 L 2.046875 0 L 0.8125 0 L 0.8125 -0.140625 C 0.90625 -0.160156 0.960938 -0.203125 0.984375 -0.265625 C 1.015625 -0.335938 1.03125 -0.441406 1.03125 -0.578125 L 1.03125 -4.6875 C 1.03125 -4.84375 1.015625 -4.953125 0.984375 -5.015625 C 0.960938 -5.078125 0.90625 -5.117188 0.8125 -5.140625 L 0.8125 -5.28125 L 4.015625 -5.28125 C 4.117188 -5.28125 4.195312 -5.289062 4.25 -5.3125 C 4.300781 -5.34375 4.335938 -5.40625 4.359375 -5.5 L 4.5 -5.5 Z M 4.5 -4.421875 "/></g></g></g><g fill="#000000" fill-opacity="1"><g transform="translate(64.078009, 9.050588)"><g><path d="M 1.375 -2.640625 C 1.375 -2.378906 1.398438 -2.117188 1.453125 -1.859375 C 1.515625 -1.597656 1.609375 -1.367188 1.734375 -1.171875 C 1.867188 -0.972656 2.039062 -0.8125 2.25 -0.6875 C 2.457031 -0.5625 2.707031 -0.5 3 -0.5 C 3.289062 -0.5 3.535156 -0.554688 3.734375 -0.671875 C 3.941406 -0.796875 4.109375 -0.957031 4.234375 -1.15625 C 4.367188 -1.363281 4.46875 -1.59375 4.53125 -1.84375 C 4.59375 -2.101562 4.625 -2.367188 4.625 -2.640625 C 4.625 -2.878906 4.597656 -3.125 4.546875 -3.375 C 4.492188 -3.625 4.398438 -3.851562 4.265625 -4.0625 C 4.140625 -4.269531 3.972656 -4.441406 3.765625 -4.578125 C 3.554688 -4.710938 3.296875 -4.78125 2.984375 -4.78125 C 2.710938 -4.78125 2.472656 -4.71875 2.265625 -4.59375 C 2.066406 -4.476562 1.898438 -4.320312 1.765625 -4.125 C 1.640625 -3.9375 1.539062 -3.710938 1.46875 -3.453125 C 1.40625 -3.203125 1.375 -2.929688 1.375 -2.640625 Z M 3 -5.359375 C 3.375 -5.359375 3.703125 -5.28125 3.984375 -5.125 C 4.273438 -4.976562 4.519531 -4.78125 4.71875 -4.53125 C 4.925781 -4.289062 5.078125 -4.007812 5.171875 -3.6875 C 5.273438 -3.363281 5.328125 -3.019531 5.328125 -2.65625 C 5.328125 -2.28125 5.273438 -1.925781 5.171875 -1.59375 C 5.066406 -1.257812 4.914062 -0.96875 4.71875 -0.71875 C 4.519531 -0.476562 4.273438 -0.285156 3.984375 -0.140625 C 3.691406 0.00390625 3.363281 0.078125 3 0.078125 C 2.601562 0.078125 2.257812 0 1.96875 -0.15625 C 1.675781 -0.3125 1.429688 -0.515625 1.234375 -0.765625 C 1.046875 -1.023438 0.90625 -1.3125 0.8125 -1.625 C 0.71875 -1.945312 0.671875 -2.273438 0.671875 -2.609375 C 0.671875 -2.992188 0.722656 -3.351562 0.828125 -3.6875 C 0.941406 -4.03125 1.097656 -4.320312 1.296875 -4.5625 C 1.492188 -4.8125 1.734375 -5.003906 2.015625 -5.140625 C 2.304688 -5.285156 2.632812 -5.359375 3 -5.359375 Z M 3 -5.359375 "/></g></g></g><g fill="#000000" fill-opacity="1"><g transform="translate(69.64034, 9.050588)"><g><path d="M 3.03125 -2.90625 C 3.425781 -2.90625 3.734375 -2.976562 3.953125 -3.125 C 4.171875 -3.28125 4.28125 -3.523438 4.28125 -3.859375 C 4.28125 -4.148438 4.171875 -4.363281 3.953125 -4.5 C 3.742188 -4.632812 3.441406 -4.703125 3.046875 -4.703125 L 1.890625 -4.703125 L 1.890625 -2.90625 Z M 3.1875 -5.28125 C 3.4375 -5.28125 3.671875 -5.25 3.890625 -5.1875 C 4.109375 -5.125 4.296875 -5.03125 4.453125 -4.90625 C 4.617188 -4.78125 4.75 -4.625 4.84375 -4.4375 C 4.9375 -4.25 4.984375 -4.035156 4.984375 -3.796875 C 4.984375 -3.453125 4.878906 -3.148438 4.671875 -2.890625 C 4.472656 -2.640625 4.203125 -2.488281 3.859375 -2.4375 L 4.90625 -0.46875 C 4.96875 -0.34375 5.023438 -0.253906 5.078125 -0.203125 C 5.140625 -0.160156 5.21875 -0.140625 5.3125 -0.140625 L 5.3125 0 L 3.96875 0 L 3.96875 -0.140625 C 4.019531 -0.148438 4.066406 -0.164062 4.109375 -0.1875 C 4.160156 -0.207031 4.1875 -0.238281 4.1875 -0.28125 C 4.1875 -0.320312 4.171875 -0.367188 4.140625 -0.421875 C 4.117188 -0.472656 4.097656 -0.523438 4.078125 -0.578125 L 3.171875 -2.28125 L 1.890625 -2.28125 L 1.890625 -0.59375 C 1.890625 -0.445312 1.90625 -0.335938 1.9375 -0.265625 C 1.96875 -0.203125 2.035156 -0.160156 2.140625 -0.140625 L 2.140625 0 L 0.921875 0 L 0.921875 -0.140625 C 1.015625 -0.160156 1.070312 -0.203125 1.09375 -0.265625 C 1.125 -0.335938 1.140625 -0.441406 1.140625 -0.578125 L 1.140625 -4.703125 C 1.140625 -4.828125 1.125 -4.925781 1.09375 -5 C 1.070312 -5.070312 1.015625 -5.117188 0.921875 -5.140625 L 0.921875 -5.28125 Z M 3.1875 -5.28125 "/></g></g></g><g fill="#000000" fill-opacity="1"><g transform="translate(75.202672, 9.050588)"><g/></g></g><g fill="#000000" fill-opacity="1"><g transform="translate(77.767957, 9.050588)"><g><path d="M 3.109375 -0.578125 C 3.503906 -0.578125 3.800781 -0.65625 4 -0.8125 C 4.207031 -0.96875 4.3125 -1.191406 4.3125 -1.484375 C 4.3125 -1.859375 4.195312 -2.109375 3.96875 -2.234375 C 3.738281 -2.359375 3.441406 -2.421875 3.078125 -2.421875 L 1.875 -2.421875 L 1.875 -0.578125 Z M 3.0625 -2.953125 C 3.488281 -2.953125 3.800781 -3.03125 4 -3.1875 C 4.195312 -3.351562 4.296875 -3.585938 4.296875 -3.890625 C 4.296875 -4.171875 4.179688 -4.375 3.953125 -4.5 C 3.734375 -4.632812 3.429688 -4.703125 3.046875 -4.703125 L 1.875 -4.703125 L 1.875 -2.953125 Z M 3.015625 -5.28125 C 3.640625 -5.28125 4.125 -5.160156 4.46875 -4.921875 C 4.8125 -4.691406 4.984375 -4.351562 4.984375 -3.90625 C 4.984375 -3.625 4.894531 -3.367188 4.71875 -3.140625 C 4.550781 -2.921875 4.332031 -2.785156 4.0625 -2.734375 L 4.0625 -2.71875 C 4.40625 -2.613281 4.660156 -2.453125 4.828125 -2.234375 C 5.003906 -2.023438 5.09375 -1.78125 5.09375 -1.5 C 5.09375 -1.238281 5.039062 -1.007812 4.9375 -0.8125 C 4.832031 -0.625 4.691406 -0.46875 4.515625 -0.34375 C 4.347656 -0.226562 4.148438 -0.140625 3.921875 -0.078125 C 3.703125 -0.0234375 3.460938 0 3.203125 0 L 0.890625 0 L 0.890625 -0.140625 C 0.992188 -0.160156 1.054688 -0.207031 1.078125 -0.28125 C 1.109375 -0.351562 1.125 -0.457031 1.125 -0.59375 L 1.125 -4.6875 C 1.125 -4.832031 1.109375 -4.9375 1.078125 -5 C 1.046875 -5.070312 0.972656 -5.117188 0.859375 -5.140625 L 0.859375 -5.28125 Z M 3.015625 -5.28125 "/></g></g></g><g fill="#000000" fill-opacity="1"><g transform="translate(83.330289, 9.050588)"><g><path d="M 4.59375 -4.421875 L 4.453125 -4.421875 C 4.429688 -4.523438 4.394531 -4.597656 4.34375 -4.640625 C 4.289062 -4.679688 4.210938 -4.703125 4.109375 -4.703125 L 1.921875 -4.703125 L 1.921875 -2.96875 L 3.34375 -2.96875 C 3.4375 -2.96875 3.507812 -2.988281 3.5625 -3.03125 C 3.613281 -3.082031 3.648438 -3.164062 3.671875 -3.28125 L 3.8125 -3.28125 L 3.8125 -2.109375 L 3.671875 -2.109375 C 3.648438 -2.222656 3.613281 -2.300781 3.5625 -2.34375 C 3.507812 -2.382812 3.4375 -2.40625 3.34375 -2.40625 L 1.921875 -2.40625 L 1.921875 -0.578125 L 4.21875 -0.578125 C 4.320312 -0.578125 4.398438 -0.597656 4.453125 -0.640625 C 4.503906 -0.679688 4.539062 -0.765625 4.5625 -0.890625 L 4.703125 -0.890625 L 4.703125 0.21875 L 4.5625 0.21875 C 4.539062 0.125 4.492188 0.0625 4.421875 0.03125 C 4.359375 0.0078125 4.25 0 4.09375 0 L 0.953125 0 L 0.953125 -0.140625 C 1.046875 -0.160156 1.101562 -0.203125 1.125 -0.265625 C 1.15625 -0.335938 1.171875 -0.441406 1.171875 -0.578125 L 1.171875 -4.703125 C 1.171875 -4.859375 1.15625 -4.960938 1.125 -5.015625 C 1.09375 -5.078125 1.035156 -5.117188 0.953125 -5.140625 L 0.953125 -5.28125 L 4.078125 -5.28125 C 4.171875 -5.28125 4.25 -5.289062 4.3125 -5.3125 C 4.382812 -5.34375 4.429688 -5.40625 4.453125 -5.5 L 4.59375 -5.5 Z M 4.59375 -4.421875 "/></g></g></g><g fill="#000000" fill-opacity="1"><g transform="translate(88.221287, 9.050588)"><g><path d="M 1.984375 -5.28125 L 1.984375 -5.140625 C 1.890625 -5.117188 1.828125 -5.070312 1.796875 -5 C 1.773438 -4.9375 1.765625 -4.835938 1.765625 -4.703125 L 1.765625 -0.625 L 4.0625 -0.625 C 4.15625 -0.625 4.226562 -0.632812 4.28125 -0.65625 C 4.34375 -0.675781 4.382812 -0.726562 4.40625 -0.8125 L 4.546875 -0.8125 L 4.546875 0.21875 L 4.40625 0.21875 C 4.382812 0.125 4.347656 0.0625 4.296875 0.03125 C 4.242188 0.0078125 4.164062 0 4.0625 0 L 0.796875 0 L 0.796875 -0.140625 C 0.890625 -0.160156 0.945312 -0.203125 0.96875 -0.265625 C 1 -0.328125 1.015625 -0.425781 1.015625 -0.5625 L 1.015625 -4.71875 C 1.015625 -4.851562 1 -4.953125 0.96875 -5.015625 C 0.945312 -5.078125 0.890625 -5.117188 0.796875 -5.140625 L 0.796875 -5.28125 Z M 1.984375 -5.28125 "/></g></g></g><g fill="#000000" fill-opacity="1"><g transform="translate(92.452934, 9.050588)"><g><path d="M 1.375 -2.640625 C 1.375 -2.378906 1.398438 -2.117188 1.453125 -1.859375 C 1.515625 -1.597656 1.609375 -1.367188 1.734375 -1.171875 C 1.867188 -0.972656 2.039062 -0.8125 2.25 -0.6875 C 2.457031 -0.5625 2.707031 -0.5 3 -0.5 C 3.289062 -0.5 3.535156 -0.554688 3.734375 -0.671875 C 3.941406 -0.796875 4.109375 -0.957031 4.234375 -1.15625 C 4.367188 -1.363281 4.46875 -1.59375 4.53125 -1.84375 C 4.59375 -2.101562 4.625 -2.367188 4.625 -2.640625 C 4.625 -2.878906 4.597656 -3.125 4.546875 -3.375 C 4.492188 -3.625 4.398438 -3.851562 4.265625 -4.0625 C 4.140625 -4.269531 3.972656 -4.441406 3.765625 -4.578125 C 3.554688 -4.710938 3.296875 -4.78125 2.984375 -4.78125 C 2.710938 -4.78125 2.472656 -4.71875 2.265625 -4.59375 C 2.066406 -4.476562 1.898438 -4.320312 1.765625 -4.125 C 1.640625 -3.9375 1.539062 -3.710938 1.46875 -3.453125 C 1.40625 -3.203125 1.375 -2.929688 1.375 -2.640625 Z M 3 -5.359375 C 3.375 -5.359375 3.703125 -5.28125 3.984375 -5.125 C 4.273438 -4.976562 4.519531 -4.78125 4.71875 -4.53125 C 4.925781 -4.289062 5.078125 -4.007812 5.171875 -3.6875 C 5.273438 -3.363281 5.328125 -3.019531 5.328125 -2.65625 C 5.328125 -2.28125 5.273438 -1.925781 5.171875 -1.59375 C 5.066406 -1.257812 4.914062 -0.96875 4.71875 -0.71875 C 4.519531 -0.476562 4.273438 -0.285156 3.984375 -0.140625 C 3.691406 0.00390625 3.363281 0.078125 3 0.078125 C 2.601562 0.078125 2.257812 0 1.96875 -0.15625 C 1.675781 -0.3125 1.429688 -0.515625 1.234375 -0.765625 C 1.046875 -1.023438 0.90625 -1.3125 0.8125 -1.625 C 0.71875 -1.945312 0.671875 -2.273438 0.671875 -2.609375 C 0.671875 -2.992188 0.722656 -3.351562 0.828125 -3.6875 C 0.941406 -4.03125 1.097656 -4.320312 1.296875 -4.5625 C 1.492188 -4.8125 1.734375 -5.003906 2.015625 -5.140625 C 2.304688 -5.285156 2.632812 -5.359375 3 -5.359375 Z M 3 -5.359375 "/></g></g></g><g fill="#000000" fill-opacity="1"><g transform="translate(98.015266, 9.050588)"><g><path d="M 2.296875 -5.28125 L 2.296875 -5.140625 C 2.160156 -5.117188 2.09375 -5.0625 2.09375 -4.96875 C 2.09375 -4.914062 2.113281 -4.863281 2.15625 -4.8125 L 4.25 -1.421875 L 4.265625 -1.421875 L 4.265625 -4.6875 C 4.265625 -4.820312 4.25 -4.925781 4.21875 -5 C 4.195312 -5.070312 4.140625 -5.117188 4.046875 -5.140625 L 4.046875 -5.28125 L 5.15625 -5.28125 L 5.15625 -5.140625 C 5.070312 -5.117188 5.015625 -5.070312 4.984375 -5 C 4.953125 -4.9375 4.9375 -4.835938 4.9375 -4.703125 L 4.9375 -0.59375 C 4.9375 -0.425781 4.953125 -0.3125 4.984375 -0.25 C 5.023438 -0.195312 5.09375 -0.160156 5.1875 -0.140625 L 5.1875 0 L 4.015625 0 L 4.015625 -0.140625 C 4.054688 -0.140625 4.09375 -0.144531 4.125 -0.15625 C 4.164062 -0.175781 4.1875 -0.203125 4.1875 -0.234375 C 4.1875 -0.304688 4.144531 -0.398438 4.0625 -0.515625 C 3.988281 -0.640625 3.867188 -0.84375 3.703125 -1.125 L 1.734375 -4.296875 L 1.71875 -4.296875 L 1.71875 -0.578125 C 1.71875 -0.429688 1.734375 -0.328125 1.765625 -0.265625 C 1.796875 -0.203125 1.859375 -0.160156 1.953125 -0.140625 L 1.953125 0 L 0.765625 0 L 0.765625 -0.140625 C 0.878906 -0.160156 0.953125 -0.195312 0.984375 -0.25 C 1.023438 -0.300781 1.046875 -0.40625 1.046875 -0.5625 L 1.046875 -4.6875 C 1.046875 -4.84375 1.03125 -4.953125 1 -5.015625 C 0.96875 -5.078125 0.910156 -5.117188 0.828125 -5.140625 L 0.828125 -5.28125 Z M 2.296875 -5.28125 "/></g></g></g><g fill="#000000" fill-opacity="1"><g transform="translate(103.577598, 9.050588)"><g><path d="M 2.25 -5.28125 L 2.25 -5.140625 C 2.164062 -5.117188 2.109375 -5.078125 2.078125 -5.015625 C 2.054688 -4.953125 2.046875 -4.851562 2.046875 -4.71875 L 2.046875 -0.5625 C 2.046875 -0.425781 2.054688 -0.328125 2.078125 -0.265625 C 2.109375 -0.203125 2.164062 -0.160156 2.25 -0.140625 L 2.25 0 L 1.078125 0 L 1.078125 -0.140625 C 1.171875 -0.160156 1.226562 -0.203125 1.25 -0.265625 C 1.28125 -0.328125 1.296875 -0.425781 1.296875 -0.5625 L 1.296875 -4.71875 C 1.296875 -4.851562 1.28125 -4.953125 1.25 -5.015625 C 1.226562 -5.078125 1.171875 -5.117188 1.078125 -5.140625 L 1.078125 -5.28125 Z M 2.25 -5.28125 "/></g></g></g><g fill="#000000" fill-opacity="1"><g transform="translate(106.478549, 9.050588)"><g><path d="M 2.296875 -5.28125 L 2.296875 -5.140625 C 2.160156 -5.117188 2.09375 -5.0625 2.09375 -4.96875 C 2.09375 -4.914062 2.113281 -4.863281 2.15625 -4.8125 L 4.25 -1.421875 L 4.265625 -1.421875 L 4.265625 -4.6875 C 4.265625 -4.820312 4.25 -4.925781 4.21875 -5 C 4.195312 -5.070312 4.140625 -5.117188 4.046875 -5.140625 L 4.046875 -5.28125 L 5.15625 -5.28125 L 5.15625 -5.140625 C 5.070312 -5.117188 5.015625 -5.070312 4.984375 -5 C 4.953125 -4.9375 4.9375 -4.835938 4.9375 -4.703125 L 4.9375 -0.59375 C 4.9375 -0.425781 4.953125 -0.3125 4.984375 -0.25 C 5.023438 -0.195312 5.09375 -0.160156 5.1875 -0.140625 L 5.1875 0 L 4.015625 0 L 4.015625 -0.140625 C 4.054688 -0.140625 4.09375 -0.144531 4.125 -0.15625 C 4.164062 -0.175781 4.1875 -0.203125 4.1875 -0.234375 C 4.1875 -0.304688 4.144531 -0.398438 4.0625 -0.515625 C 3.988281 -0.640625 3.867188 -0.84375 3.703125 -1.125 L 1.734375 -4.296875 L 1.71875 -4.296875 L 1.71875 -0.578125 C 1.71875 -0.429688 1.734375 -0.328125 1.765625 -0.265625 C 1.796875 -0.203125 1.859375 -0.160156 1.953125 -0.140625 L 1.953125 0 L 0.765625 0 L 0.765625 -0.140625 C 0.878906 -0.160156 0.953125 -0.195312 0.984375 -0.25 C 1.023438 -0.300781 1.046875 -0.40625 1.046875 -0.5625 L 1.046875 -4.6875 C 1.046875 -4.84375 1.03125 -4.953125 1 -5.015625 C 0.96875 -5.078125 0.910156 -5.117188 0.828125 -5.140625 L 0.828125 -5.28125 Z M 2.296875 -5.28125 "/></g></g></g><g fill="#000000" fill-opacity="1"><g transform="translate(112.040881, 9.050588)"><g><path d="M 3 -5.359375 C 3.289062 -5.359375 3.539062 -5.316406 3.75 -5.234375 C 3.957031 -5.148438 4.128906 -5.066406 4.265625 -4.984375 C 4.335938 -4.953125 4.394531 -4.925781 4.4375 -4.90625 C 4.476562 -4.882812 4.53125 -4.875 4.59375 -4.875 C 4.644531 -4.875 4.6875 -4.878906 4.71875 -4.890625 C 4.757812 -4.898438 4.796875 -4.914062 4.828125 -4.9375 L 4.921875 -4.875 L 4.3125 -3.875 L 4.203125 -3.9375 C 4.210938 -3.988281 4.21875 -4.035156 4.21875 -4.078125 C 4.226562 -4.128906 4.234375 -4.171875 4.234375 -4.203125 C 4.234375 -4.273438 4.195312 -4.34375 4.125 -4.40625 C 4.050781 -4.476562 3.957031 -4.539062 3.84375 -4.59375 C 3.726562 -4.644531 3.597656 -4.6875 3.453125 -4.71875 C 3.316406 -4.757812 3.179688 -4.78125 3.046875 -4.78125 C 2.796875 -4.78125 2.566406 -4.722656 2.359375 -4.609375 C 2.148438 -4.503906 1.972656 -4.351562 1.828125 -4.15625 C 1.679688 -3.957031 1.566406 -3.722656 1.484375 -3.453125 C 1.410156 -3.179688 1.375 -2.882812 1.375 -2.5625 C 1.375 -2.28125 1.414062 -2.007812 1.5 -1.75 C 1.59375 -1.5 1.71875 -1.28125 1.875 -1.09375 C 2.03125 -0.90625 2.207031 -0.757812 2.40625 -0.65625 C 2.613281 -0.550781 2.820312 -0.5 3.03125 -0.5 C 3.3125 -0.5 3.546875 -0.535156 3.734375 -0.609375 C 3.921875 -0.691406 4.082031 -0.800781 4.21875 -0.9375 L 4.21875 -2.015625 L 3.234375 -2.015625 C 3.140625 -2.015625 3.0625 -1.984375 3 -1.921875 C 2.945312 -1.867188 2.914062 -1.796875 2.90625 -1.703125 L 2.765625 -1.703125 L 2.765625 -2.921875 L 2.90625 -2.921875 C 2.9375 -2.734375 3.046875 -2.640625 3.234375 -2.640625 L 5.09375 -2.640625 L 5.09375 -2.484375 C 5.019531 -2.460938 4.972656 -2.4375 4.953125 -2.40625 C 4.929688 -2.382812 4.921875 -2.320312 4.921875 -2.21875 L 4.921875 -1.265625 C 4.921875 -1.160156 4.9375 -1.09375 4.96875 -1.0625 C 5 -1.039062 5.015625 -1.003906 5.015625 -0.953125 C 5.015625 -0.898438 4.960938 -0.8125 4.859375 -0.6875 C 4.753906 -0.570312 4.628906 -0.46875 4.484375 -0.375 C 4.304688 -0.25 4.09375 -0.140625 3.84375 -0.046875 C 3.601562 0.0351562 3.320312 0.078125 3 0.078125 C 2.613281 0.078125 2.273438 0 1.984375 -0.15625 C 1.691406 -0.3125 1.445312 -0.507812 1.25 -0.75 C 1.0625 -1 0.914062 -1.285156 0.8125 -1.609375 C 0.71875 -1.929688 0.671875 -2.265625 0.671875 -2.609375 C 0.671875 -2.992188 0.71875 -3.347656 0.8125 -3.671875 C 0.914062 -4.003906 1.066406 -4.296875 1.265625 -4.546875 C 1.472656 -4.796875 1.71875 -4.992188 2 -5.140625 C 2.289062 -5.285156 2.625 -5.359375 3 -5.359375 Z M 3 -5.359375 "/></g></g></g><g fill="#000000" fill-opacity="1"><g transform="translate(117.603213, 9.050588)"><g><path d="M 2.640625 -5.359375 C 2.929688 -5.359375 3.175781 -5.332031 3.375 -5.28125 C 3.582031 -5.226562 3.753906 -5.175781 3.890625 -5.125 C 4.023438 -5.070312 4.113281 -5.046875 4.15625 -5.046875 C 4.195312 -5.046875 4.234375 -5.054688 4.265625 -5.078125 C 4.304688 -5.097656 4.34375 -5.117188 4.375 -5.140625 L 4.46875 -5.09375 L 3.953125 -4.03125 L 3.859375 -4.078125 C 3.859375 -4.109375 3.859375 -4.132812 3.859375 -4.15625 C 3.859375 -4.175781 3.859375 -4.195312 3.859375 -4.21875 C 3.859375 -4.300781 3.8125 -4.378906 3.71875 -4.453125 C 3.632812 -4.523438 3.523438 -4.582031 3.390625 -4.625 C 3.253906 -4.675781 3.109375 -4.710938 2.953125 -4.734375 C 2.804688 -4.765625 2.675781 -4.78125 2.5625 -4.78125 C 2.25 -4.78125 1.988281 -4.703125 1.78125 -4.546875 C 1.570312 -4.390625 1.46875 -4.210938 1.46875 -4.015625 C 1.46875 -3.785156 1.550781 -3.609375 1.71875 -3.484375 C 1.894531 -3.359375 2.195312 -3.253906 2.625 -3.171875 C 2.875 -3.117188 3.113281 -3.0625 3.34375 -3 C 3.582031 -2.9375 3.789062 -2.847656 3.96875 -2.734375 C 4.144531 -2.617188 4.285156 -2.472656 4.390625 -2.296875 C 4.503906 -2.117188 4.5625 -1.878906 4.5625 -1.578125 C 4.5625 -1.304688 4.503906 -1.066406 4.390625 -0.859375 C 4.285156 -0.660156 4.144531 -0.488281 3.96875 -0.34375 C 3.789062 -0.207031 3.582031 -0.101562 3.34375 -0.03125 C 3.113281 0.0390625 2.867188 0.078125 2.609375 0.078125 C 2.367188 0.078125 2.148438 0.0507812 1.953125 0 C 1.765625 -0.0507812 1.597656 -0.101562 1.453125 -0.15625 C 1.316406 -0.21875 1.207031 -0.273438 1.125 -0.328125 C 1.039062 -0.378906 0.984375 -0.40625 0.953125 -0.40625 C 0.890625 -0.40625 0.828125 -0.363281 0.765625 -0.28125 L 0.625 -0.34375 L 1.140625 -1.421875 L 1.265625 -1.359375 C 1.253906 -1.316406 1.242188 -1.285156 1.234375 -1.265625 C 1.234375 -1.242188 1.234375 -1.226562 1.234375 -1.21875 C 1.234375 -1.144531 1.269531 -1.066406 1.34375 -0.984375 C 1.425781 -0.898438 1.53125 -0.820312 1.65625 -0.75 C 1.78125 -0.675781 1.921875 -0.613281 2.078125 -0.5625 C 2.242188 -0.519531 2.421875 -0.5 2.609375 -0.5 C 2.742188 -0.5 2.890625 -0.519531 3.046875 -0.5625 C 3.203125 -0.601562 3.335938 -0.664062 3.453125 -0.75 C 3.578125 -0.832031 3.675781 -0.941406 3.75 -1.078125 C 3.820312 -1.210938 3.859375 -1.378906 3.859375 -1.578125 C 3.859375 -1.722656 3.820312 -1.84375 3.75 -1.9375 C 3.6875 -2.039062 3.59375 -2.125 3.46875 -2.1875 C 3.351562 -2.257812 3.210938 -2.316406 3.046875 -2.359375 C 2.890625 -2.410156 2.710938 -2.457031 2.515625 -2.5 C 2.304688 -2.539062 2.097656 -2.59375 1.890625 -2.65625 C 1.679688 -2.726562 1.492188 -2.816406 1.328125 -2.921875 C 1.160156 -3.023438 1.023438 -3.160156 0.921875 -3.328125 C 0.828125 -3.503906 0.78125 -3.734375 0.78125 -4.015625 C 0.78125 -4.421875 0.953125 -4.742188 1.296875 -4.984375 C 1.640625 -5.234375 2.085938 -5.359375 2.640625 -5.359375 Z M 2.640625 -5.359375 "/></g></g></g><g fill="#000000" fill-opacity="1"><g transform="translate(122.494211, 9.050588)"><g><path d="M 1.421875 -1.109375 C 1.679688 -1.109375 1.882812 -1.03125 2.03125 -0.875 C 2.175781 -0.71875 2.25 -0.515625 2.25 -0.265625 C 2.25 -0.046875 2.207031 0.164062 2.125 0.375 C 2.039062 0.582031 1.929688 0.769531 1.796875 0.9375 C 1.660156 1.101562 1.503906 1.242188 1.328125 1.359375 C 1.148438 1.472656 0.957031 1.539062 0.75 1.5625 L 0.75 1.21875 C 1.019531 1.113281 1.238281 0.96875 1.40625 0.78125 C 1.582031 0.59375 1.671875 0.328125 1.671875 -0.015625 C 1.648438 -0.00390625 1.625 0.00390625 1.59375 0.015625 C 1.570312 0.0234375 1.53125 0.03125 1.46875 0.03125 C 1.40625 0.03125 1.335938 0.0195312 1.265625 0 C 1.191406 -0.0195312 1.125 -0.046875 1.0625 -0.078125 C 1 -0.109375 0.945312 -0.15625 0.90625 -0.21875 C 0.863281 -0.289062 0.84375 -0.375 0.84375 -0.46875 C 0.84375 -0.632812 0.894531 -0.78125 1 -0.90625 C 1.101562 -1.039062 1.242188 -1.109375 1.421875 -1.109375 Z M 1.421875 -1.109375 "/></g></g></g><g fill="#000000" fill-opacity="1"><g transform="translate(125.059496, 9.050588)"><g/></g></g><g fill="#000000" fill-opacity="1"><g transform="translate(127.62478, 9.050588)"><g><path d="M 0.34375 -5.5 L 0.484375 -5.5 C 0.503906 -5.40625 0.539062 -5.34375 0.59375 -5.3125 C 0.65625 -5.289062 0.734375 -5.28125 0.828125 -5.28125 L 3.828125 -5.28125 C 3.910156 -5.28125 3.984375 -5.289062 4.046875 -5.3125 C 4.109375 -5.34375 4.144531 -5.40625 4.15625 -5.5 L 4.3125 -5.5 L 4.3125 -4.421875 L 4.15625 -4.421875 C 4.144531 -4.523438 4.109375 -4.597656 4.046875 -4.640625 C 3.992188 -4.679688 3.921875 -4.703125 3.828125 -4.703125 L 2.703125 -4.703125 L 2.703125 -0.578125 C 2.703125 -0.429688 2.71875 -0.328125 2.75 -0.265625 C 2.78125 -0.203125 2.84375 -0.160156 2.9375 -0.140625 L 2.9375 0 L 1.734375 0 L 1.734375 -0.140625 C 1.828125 -0.160156 1.882812 -0.203125 1.90625 -0.265625 C 1.9375 -0.328125 1.953125 -0.425781 1.953125 -0.5625 L 1.953125 -4.703125 L 0.828125 -4.703125 C 0.742188 -4.703125 0.671875 -4.679688 0.609375 -4.640625 C 0.546875 -4.609375 0.503906 -4.535156 0.484375 -4.421875 L 0.34375 -4.421875 Z M 0.34375 -5.5 "/></g></g></g><g fill="#000000" fill-opacity="1"><g transform="translate(131.856428, 9.050588)"><g><path d="M 2.25 -5.28125 L 2.25 -5.140625 C 2.164062 -5.117188 2.109375 -5.078125 2.078125 -5.015625 C 2.054688 -4.953125 2.046875 -4.851562 2.046875 -4.71875 L 2.046875 -0.5625 C 2.046875 -0.425781 2.054688 -0.328125 2.078125 -0.265625 C 2.109375 -0.203125 2.164062 -0.160156 2.25 -0.140625 L 2.25 0 L 1.078125 0 L 1.078125 -0.140625 C 1.171875 -0.160156 1.226562 -0.203125 1.25 -0.265625 C 1.28125 -0.328125 1.296875 -0.425781 1.296875 -0.5625 L 1.296875 -4.71875 C 1.296875 -4.851562 1.28125 -4.953125 1.25 -5.015625 C 1.226562 -5.078125 1.171875 -5.117188 1.078125 -5.140625 L 1.078125 -5.28125 Z M 2.25 -5.28125 "/></g></g></g><g fill="#000000" fill-opacity="1"><g transform="translate(134.757379, 9.050588)"><g><path d="M 4.59375 -4.421875 L 4.453125 -4.421875 C 4.429688 -4.523438 4.394531 -4.597656 4.34375 -4.640625 C 4.289062 -4.679688 4.210938 -4.703125 4.109375 -4.703125 L 1.921875 -4.703125 L 1.921875 -2.96875 L 3.34375 -2.96875 C 3.4375 -2.96875 3.507812 -2.988281 3.5625 -3.03125 C 3.613281 -3.082031 3.648438 -3.164062 3.671875 -3.28125 L 3.8125 -3.28125 L 3.8125 -2.109375 L 3.671875 -2.109375 C 3.648438 -2.222656 3.613281 -2.300781 3.5625 -2.34375 C 3.507812 -2.382812 3.4375 -2.40625 3.34375 -2.40625 L 1.921875 -2.40625 L 1.921875 -0.578125 L 4.21875 -0.578125 C 4.320312 -0.578125 4.398438 -0.597656 4.453125 -0.640625 C 4.503906 -0.679688 4.539062 -0.765625 4.5625 -0.890625 L 4.703125 -0.890625 L 4.703125 0.21875 L 4.5625 0.21875 C 4.539062 0.125 4.492188 0.0625 4.421875 0.03125 C 4.359375 0.0078125 4.25 0 4.09375 0 L 0.953125 0 L 0.953125 -0.140625 C 1.046875 -0.160156 1.101562 -0.203125 1.125 -0.265625 C 1.15625 -0.335938 1.171875 -0.441406 1.171875 -0.578125 L 1.171875 -4.703125 C 1.171875 -4.859375 1.15625 -4.960938 1.125 -5.015625 C 1.09375 -5.078125 1.035156 -5.117188 0.953125 -5.140625 L 0.953125 -5.28125 L 4.078125 -5.28125 C 4.171875 -5.28125 4.25 -5.289062 4.3125 -5.3125 C 4.382812 -5.34375 4.429688 -5.40625 4.453125 -5.5 L 4.59375 -5.5 Z M 4.59375 -4.421875 "/></g></g></g><g fill="#000000" fill-opacity="1"><g transform="translate(139.648377, 9.050588)"><g><path d="M 2.578125 -0.578125 C 2.941406 -0.578125 3.25 -0.609375 3.5 -0.671875 C 3.75 -0.742188 3.953125 -0.859375 4.109375 -1.015625 C 4.265625 -1.179688 4.378906 -1.394531 4.453125 -1.65625 C 4.523438 -1.925781 4.5625 -2.257812 4.5625 -2.65625 C 4.5625 -2.96875 4.535156 -3.25 4.484375 -3.5 C 4.429688 -3.757812 4.335938 -3.976562 4.203125 -4.15625 C 4.078125 -4.332031 3.898438 -4.46875 3.671875 -4.5625 C 3.453125 -4.65625 3.171875 -4.703125 2.828125 -4.703125 L 1.84375 -4.703125 L 1.84375 -0.578125 Z M 3.046875 -5.28125 C 3.796875 -5.28125 4.359375 -5.046875 4.734375 -4.578125 C 5.109375 -4.109375 5.296875 -3.46875 5.296875 -2.65625 C 5.296875 -1.738281 5.09375 -1.066406 4.6875 -0.640625 C 4.28125 -0.210938 3.625 0 2.71875 0 L 0.828125 0 L 0.828125 -0.140625 C 0.941406 -0.160156 1.015625 -0.203125 1.046875 -0.265625 C 1.078125 -0.335938 1.09375 -0.445312 1.09375 -0.59375 L 1.09375 -4.6875 C 1.09375 -4.851562 1.070312 -4.960938 1.03125 -5.015625 C 1 -5.078125 0.921875 -5.117188 0.796875 -5.140625 L 0.796875 -5.28125 Z M 3.046875 -5.28125 "/></g></g></g><g fill="#000000" fill-opacity="1"><g transform="translate(145.210709, 9.050588)"><g/></g></g><g fill="#000000" fill-opacity="1"><g transform="translate(147.775994, 9.050588)"><g><path d="M 0.34375 -5.5 L 0.484375 -5.5 C 0.503906 -5.40625 0.539062 -5.34375 0.59375 -5.3125 C 0.65625 -5.289062 0.734375 -5.28125 0.828125 -5.28125 L 3.828125 -5.28125 C 3.910156 -5.28125 3.984375 -5.289062 4.046875 -5.3125 C 4.109375 -5.34375 4.144531 -5.40625 4.15625 -5.5 L 4.3125 -5.5 L 4.3125 -4.421875 L 4.15625 -4.421875 C 4.144531 -4.523438 4.109375 -4.597656 4.046875 -4.640625 C 3.992188 -4.679688 3.921875 -4.703125 3.828125 -4.703125 L 2.703125 -4.703125 L 2.703125 -0.578125 C 2.703125 -0.429688 2.71875 -0.328125 2.75 -0.265625 C 2.78125 -0.203125 2.84375 -0.160156 2.9375 -0.140625 L 2.9375 0 L 1.734375 0 L 1.734375 -0.140625 C 1.828125 -0.160156 1.882812 -0.203125 1.90625 -0.265625 C 1.9375 -0.328125 1.953125 -0.425781 1.953125 -0.5625 L 1.953125 -4.703125 L 0.828125 -4.703125 C 0.742188 -4.703125 0.671875 -4.679688 0.609375 -4.640625 C 0.546875 -4.609375 0.503906 -4.535156 0.484375 -4.421875 L 0.34375 -4.421875 Z M 0.34375 -5.5 "/></g></g></g><g fill="#000000" fill-opacity="1"><g transform="translate(152.007641, 9.050588)"><g><path d="M 1.375 -2.640625 C 1.375 -2.378906 1.398438 -2.117188 1.453125 -1.859375 C 1.515625 -1.597656 1.609375 -1.367188 1.734375 -1.171875 C 1.867188 -0.972656 2.039062 -0.8125 2.25 -0.6875 C 2.457031 -0.5625 2.707031 -0.5 3 -0.5 C 3.289062 -0.5 3.535156 -0.554688 3.734375 -0.671875 C 3.941406 -0.796875 4.109375 -0.957031 4.234375 -1.15625 C 4.367188 -1.363281 4.46875 -1.59375 4.53125 -1.84375 C 4.59375 -2.101562 4.625 -2.367188 4.625 -2.640625 C 4.625 -2.878906 4.597656 -3.125 4.546875 -3.375 C 4.492188 -3.625 4.398438 -3.851562 4.265625 -4.0625 C 4.140625 -4.269531 3.972656 -4.441406 3.765625 -4.578125 C 3.554688 -4.710938 3.296875 -4.78125 2.984375 -4.78125 C 2.710938 -4.78125 2.472656 -4.71875 2.265625 -4.59375 C 2.066406 -4.476562 1.898438 -4.320312 1.765625 -4.125 C 1.640625 -3.9375 1.539062 -3.710938 1.46875 -3.453125 C 1.40625 -3.203125 1.375 -2.929688 1.375 -2.640625 Z M 3 -5.359375 C 3.375 -5.359375 3.703125 -5.28125 3.984375 -5.125 C 4.273438 -4.976562 4.519531 -4.78125 4.71875 -4.53125 C 4.925781 -4.289062 5.078125 -4.007812 5.171875 -3.6875 C 5.273438 -3.363281 5.328125 -3.019531 5.328125 -2.65625 C 5.328125 -2.28125 5.273438 -1.925781 5.171875 -1.59375 C 5.066406 -1.257812 4.914062 -0.96875 4.71875 -0.71875 C 4.519531 -0.476562 4.273438 -0.285156 3.984375 -0.140625 C 3.691406 0.00390625 3.363281 0.078125 3 0.078125 C 2.601562 0.078125 2.257812 0 1.96875 -0.15625 C 1.675781 -0.3125 1.429688 -0.515625 1.234375 -0.765625 C 1.046875 -1.023438 0.90625 -1.3125 0.8125 -1.625 C 0.71875 -1.945312 0.671875 -2.273438 0.671875 -2.609375 C 0.671875 -2.992188 0.722656 -3.351562 0.828125 -3.6875 C 0.941406 -4.03125 1.097656 -4.320312 1.296875 -4.5625 C 1.492188 -4.8125 1.734375 -5.003906 2.015625 -5.140625 C 2.304688 -5.285156 2.632812 -5.359375 3 -5.359375 Z M 3 -5.359375 "/></g></g></g><g fill="#000000" fill-opacity="1"><g transform="translate(157.569973, 9.050588)"><g/></g></g><g fill="#000000" fill-opacity="1"><g transform="translate(160.135257, 9.050588)"><g><path d="M 2.953125 -5.359375 C 3.234375 -5.359375 3.476562 -5.304688 3.6875 -5.203125 C 3.90625 -5.109375 4.109375 -4.984375 4.296875 -4.828125 C 4.347656 -4.785156 4.394531 -4.75 4.4375 -4.71875 C 4.488281 -4.6875 4.535156 -4.671875 4.578125 -4.671875 C 4.597656 -4.671875 4.617188 -4.675781 4.640625 -4.6875 C 4.671875 -4.707031 4.703125 -4.726562 4.734375 -4.75 L 4.828125 -4.6875 L 4.234375 -3.78125 L 4.125 -3.8125 L 4.125 -3.875 C 4.125 -4.019531 4.085938 -4.144531 4.015625 -4.25 C 3.941406 -4.363281 3.851562 -4.457031 3.75 -4.53125 C 3.644531 -4.613281 3.523438 -4.675781 3.390625 -4.71875 C 3.253906 -4.757812 3.125 -4.78125 3 -4.78125 C 2.488281 -4.78125 2.085938 -4.582031 1.796875 -4.1875 C 1.515625 -3.789062 1.375 -3.273438 1.375 -2.640625 C 1.375 -1.929688 1.507812 -1.394531 1.78125 -1.03125 C 2.0625 -0.675781 2.453125 -0.5 2.953125 -0.5 C 3.109375 -0.5 3.253906 -0.53125 3.390625 -0.59375 C 3.535156 -0.65625 3.660156 -0.726562 3.765625 -0.8125 C 3.878906 -0.894531 3.960938 -0.984375 4.015625 -1.078125 C 4.078125 -1.179688 4.109375 -1.28125 4.109375 -1.375 C 4.109375 -1.40625 4.109375 -1.4375 4.109375 -1.46875 L 4.21875 -1.515625 L 4.90625 -0.625 L 4.828125 -0.5625 C 4.804688 -0.582031 4.785156 -0.59375 4.765625 -0.59375 C 4.742188 -0.601562 4.710938 -0.609375 4.671875 -0.609375 C 4.617188 -0.609375 4.566406 -0.59375 4.515625 -0.5625 C 4.460938 -0.539062 4.394531 -0.5 4.3125 -0.4375 C 4.132812 -0.300781 3.941406 -0.179688 3.734375 -0.078125 C 3.535156 0.0234375 3.273438 0.078125 2.953125 0.078125 C 2.210938 0.078125 1.640625 -0.148438 1.234375 -0.609375 C 0.828125 -1.078125 0.625 -1.753906 0.625 -2.640625 C 0.625 -3.003906 0.671875 -3.347656 0.765625 -3.671875 C 0.867188 -3.992188 1.019531 -4.28125 1.21875 -4.53125 C 1.414062 -4.78125 1.65625 -4.976562 1.9375 -5.125 C 2.226562 -5.28125 2.566406 -5.359375 2.953125 -5.359375 Z M 2.953125 -5.359375 "/></g></g></g><g fill="#000000" fill-opacity="1"><g transform="translate(165.026256, 9.050588)"><g><path d="M 1.375 -2.640625 C 1.375 -2.378906 1.398438 -2.117188 1.453125 -1.859375 C 1.515625 -1.597656 1.609375 -1.367188 1.734375 -1.171875 C 1.867188 -0.972656 2.039062 -0.8125 2.25 -0.6875 C 2.457031 -0.5625 2.707031 -0.5 3 -0.5 C 3.289062 -0.5 3.535156 -0.554688 3.734375 -0.671875 C 3.941406 -0.796875 4.109375 -0.957031 4.234375 -1.15625 C 4.367188 -1.363281 4.46875 -1.59375 4.53125 -1.84375 C 4.59375 -2.101562 4.625 -2.367188 4.625 -2.640625 C 4.625 -2.878906 4.597656 -3.125 4.546875 -3.375 C 4.492188 -3.625 4.398438 -3.851562 4.265625 -4.0625 C 4.140625 -4.269531 3.972656 -4.441406 3.765625 -4.578125 C 3.554688 -4.710938 3.296875 -4.78125 2.984375 -4.78125 C 2.710938 -4.78125 2.472656 -4.71875 2.265625 -4.59375 C 2.066406 -4.476562 1.898438 -4.320312 1.765625 -4.125 C 1.640625 -3.9375 1.539062 -3.710938 1.46875 -3.453125 C 1.40625 -3.203125 1.375 -2.929688 1.375 -2.640625 Z M 3 -5.359375 C 3.375 -5.359375 3.703125 -5.28125 3.984375 -5.125 C 4.273438 -4.976562 4.519531 -4.78125 4.71875 -4.53125 C 4.925781 -4.289062 5.078125 -4.007812 5.171875 -3.6875 C 5.273438 -3.363281 5.328125 -3.019531 5.328125 -2.65625 C 5.328125 -2.28125 5.273438 -1.925781 5.171875 -1.59375 C 5.066406 -1.257812 4.914062 -0.96875 4.71875 -0.71875 C 4.519531 -0.476562 4.273438 -0.285156 3.984375 -0.140625 C 3.691406 0.00390625 3.363281 0.078125 3 0.078125 C 2.601562 0.078125 2.257812 0 1.96875 -0.15625 C 1.675781 -0.3125 1.429688 -0.515625 1.234375 -0.765625 C 1.046875 -1.023438 0.90625 -1.3125 0.8125 -1.625 C 0.71875 -1.945312 0.671875 -2.273438 0.671875 -2.609375 C 0.671875 -2.992188 0.722656 -3.351562 0.828125 -3.6875 C 0.941406 -4.03125 1.097656 -4.320312 1.296875 -4.5625 C 1.492188 -4.8125 1.734375 -5.003906 2.015625 -5.140625 C 2.304688 -5.285156 2.632812 -5.359375 3 -5.359375 Z M 3 -5.359375 "/></g></g></g><g fill="#000000" fill-opacity="1"><g transform="translate(170.588588, 9.050588)"><g><path d="M 2.53125 -5.28125 L 2.53125 -5.140625 C 2.476562 -5.117188 2.4375 -5.097656 2.40625 -5.078125 C 2.375 -5.054688 2.359375 -5.015625 2.359375 -4.953125 C 2.359375 -4.910156 2.363281 -4.863281 2.375 -4.8125 C 2.394531 -4.757812 2.421875 -4.679688 2.453125 -4.578125 L 3.671875 -1.375 L 3.703125 -1.375 L 4.953125 -4.78125 C 4.972656 -4.851562 4.984375 -4.90625 4.984375 -4.9375 C 4.984375 -4.988281 4.972656 -5.03125 4.953125 -5.0625 C 4.941406 -5.101562 4.90625 -5.128906 4.84375 -5.140625 L 4.84375 -5.28125 L 6.421875 -5.28125 L 6.421875 -5.140625 C 6.265625 -5.109375 6.1875 -4.96875 6.1875 -4.71875 L 6.1875 -0.59375 C 6.1875 -0.445312 6.203125 -0.335938 6.234375 -0.265625 C 6.265625 -0.203125 6.332031 -0.160156 6.4375 -0.140625 L 6.4375 0 L 5.28125 0 L 5.28125 -0.140625 C 5.394531 -0.160156 5.46875 -0.195312 5.5 -0.25 C 5.539062 -0.3125 5.5625 -0.421875 5.5625 -0.578125 L 5.5625 -4.65625 L 5.53125 -4.65625 L 3.796875 0 L 3.546875 0 L 1.78125 -4.65625 L 1.765625 -4.65625 L 1.765625 -0.59375 C 1.765625 -0.4375 1.78125 -0.328125 1.8125 -0.265625 C 1.84375 -0.203125 1.910156 -0.160156 2.015625 -0.140625 L 2.015625 0 L 0.90625 0 L 0.90625 -0.140625 C 1 -0.160156 1.0625 -0.195312 1.09375 -0.25 C 1.125 -0.3125 1.140625 -0.425781 1.140625 -0.59375 L 1.140625 -4.703125 C 1.140625 -4.960938 1.054688 -5.109375 0.890625 -5.140625 L 0.890625 -5.28125 Z M 2.53125 -5.28125 "/></g></g></g><g fill="#000000" fill-opacity="1"><g transform="translate(177.481615, 9.050588)"><g><path d="M 2.78125 -2.859375 C 3.1875 -2.859375 3.5 -2.9375 3.71875 -3.09375 C 3.9375 -3.257812 4.046875 -3.492188 4.046875 -3.796875 C 4.046875 -4.085938 3.957031 -4.3125 3.78125 -4.46875 C 3.601562 -4.625 3.363281 -4.703125 3.0625 -4.703125 L 1.890625 -4.703125 L 1.890625 -2.859375 Z M 3.125 -5.28125 C 3.394531 -5.28125 3.628906 -5.238281 3.828125 -5.15625 C 4.023438 -5.082031 4.191406 -4.972656 4.328125 -4.828125 C 4.460938 -4.691406 4.5625 -4.53125 4.625 -4.34375 C 4.695312 -4.164062 4.734375 -3.972656 4.734375 -3.765625 C 4.734375 -3.503906 4.679688 -3.28125 4.578125 -3.09375 C 4.472656 -2.90625 4.335938 -2.75 4.171875 -2.625 C 4.003906 -2.507812 3.8125 -2.421875 3.59375 -2.359375 C 3.382812 -2.304688 3.175781 -2.28125 2.96875 -2.28125 L 1.890625 -2.28125 L 1.890625 -0.59375 C 1.890625 -0.445312 1.90625 -0.335938 1.9375 -0.265625 C 1.96875 -0.203125 2.039062 -0.160156 2.15625 -0.140625 L 2.15625 0 L 0.953125 0 L 0.953125 -0.140625 C 1.085938 -0.171875 1.15625 -0.320312 1.15625 -0.59375 L 1.15625 -4.671875 C 1.15625 -4.828125 1.140625 -4.9375 1.109375 -5 C 1.078125 -5.070312 0.992188 -5.117188 0.859375 -5.140625 L 0.859375 -5.28125 Z M 3.125 -5.28125 "/></g></g></g><g fill="#000000" fill-opacity="1"><g transform="translate(182.372614, 9.050588)"><g><path d="M 2.03125 -5.28125 L 2.03125 -5.140625 C 1.9375 -5.117188 1.867188 -5.078125 1.828125 -5.015625 C 1.796875 -4.953125 1.78125 -4.847656 1.78125 -4.703125 L 1.78125 -1.578125 C 1.78125 -1.242188 1.878906 -0.976562 2.078125 -0.78125 C 2.285156 -0.59375 2.59375 -0.5 3 -0.5 C 3.40625 -0.5 3.707031 -0.59375 3.90625 -0.78125 C 4.113281 -0.976562 4.21875 -1.242188 4.21875 -1.578125 L 4.21875 -4.703125 C 4.21875 -4.835938 4.195312 -4.9375 4.15625 -5 C 4.125 -5.070312 4.054688 -5.117188 3.953125 -5.140625 L 3.953125 -5.28125 L 5.203125 -5.28125 L 5.203125 -5.140625 C 5.097656 -5.117188 5.03125 -5.078125 5 -5.015625 C 4.96875 -4.953125 4.953125 -4.847656 4.953125 -4.703125 L 4.953125 -1.765625 C 4.953125 -1.160156 4.800781 -0.703125 4.5 -0.390625 C 4.195312 -0.078125 3.695312 0.078125 3 0.078125 C 2.300781 0.078125 1.800781 -0.078125 1.5 -0.390625 C 1.195312 -0.703125 1.046875 -1.160156 1.046875 -1.765625 L 1.046875 -4.6875 C 1.046875 -4.851562 1.023438 -4.960938 0.984375 -5.015625 C 0.953125 -5.078125 0.875 -5.117188 0.75 -5.140625 L 0.75 -5.28125 Z M 2.03125 -5.28125 "/></g></g></g><g fill="#000000" fill-opacity="1"><g transform="translate(187.934946, 9.050588)"><g><path d="M 0.34375 -5.5 L 0.484375 -5.5 C 0.503906 -5.40625 0.539062 -5.34375 0.59375 -5.3125 C 0.65625 -5.289062 0.734375 -5.28125 0.828125 -5.28125 L 3.828125 -5.28125 C 3.910156 -5.28125 3.984375 -5.289062 4.046875 -5.3125 C 4.109375 -5.34375 4.144531 -5.40625 4.15625 -5.5 L 4.3125 -5.5 L 4.3125 -4.421875 L 4.15625 -4.421875 C 4.144531 -4.523438 4.109375 -4.597656 4.046875 -4.640625 C 3.992188 -4.679688 3.921875 -4.703125 3.828125 -4.703125 L 2.703125 -4.703125 L 2.703125 -0.578125 C 2.703125 -0.429688 2.71875 -0.328125 2.75 -0.265625 C 2.78125 -0.203125 2.84375 -0.160156 2.9375 -0.140625 L 2.9375 0 L 1.734375 0 L 1.734375 -0.140625 C 1.828125 -0.160156 1.882812 -0.203125 1.90625 -0.265625 C 1.9375 -0.328125 1.953125 -0.425781 1.953125 -0.5625 L 1.953125 -4.703125 L 0.828125 -4.703125 C 0.742188 -4.703125 0.671875 -4.679688 0.609375 -4.640625 C 0.546875 -4.609375 0.503906 -4.535156 0.484375 -4.421875 L 0.34375 -4.421875 Z M 0.34375 -5.5 "/></g></g></g><g fill="#000000" fill-opacity="1"><g transform="translate(192.166593, 9.050588)"><g><path d="M 4.59375 -4.421875 L 4.453125 -4.421875 C 4.429688 -4.523438 4.394531 -4.597656 4.34375 -4.640625 C 4.289062 -4.679688 4.210938 -4.703125 4.109375 -4.703125 L 1.921875 -4.703125 L 1.921875 -2.96875 L 3.34375 -2.96875 C 3.4375 -2.96875 3.507812 -2.988281 3.5625 -3.03125 C 3.613281 -3.082031 3.648438 -3.164062 3.671875 -3.28125 L 3.8125 -3.28125 L 3.8125 -2.109375 L 3.671875 -2.109375 C 3.648438 -2.222656 3.613281 -2.300781 3.5625 -2.34375 C 3.507812 -2.382812 3.4375 -2.40625 3.34375 -2.40625 L 1.921875 -2.40625 L 1.921875 -0.578125 L 4.21875 -0.578125 C 4.320312 -0.578125 4.398438 -0.597656 4.453125 -0.640625 C 4.503906 -0.679688 4.539062 -0.765625 4.5625 -0.890625 L 4.703125 -0.890625 L 4.703125 0.21875 L 4.5625 0.21875 C 4.539062 0.125 4.492188 0.0625 4.421875 0.03125 C 4.359375 0.0078125 4.25 0 4.09375 0 L 0.953125 0 L 0.953125 -0.140625 C 1.046875 -0.160156 1.101562 -0.203125 1.125 -0.265625 C 1.15625 -0.335938 1.171875 -0.441406 1.171875 -0.578125 L 1.171875 -4.703125 C 1.171875 -4.859375 1.15625 -4.960938 1.125 -5.015625 C 1.09375 -5.078125 1.035156 -5.117188 0.953125 -5.140625 L 0.953125 -5.28125 L 4.078125 -5.28125 C 4.171875 -5.28125 4.25 -5.289062 4.3125 -5.3125 C 4.382812 -5.34375 4.429688 -5.40625 4.453125 -5.5 L 4.59375 -5.5 Z M 4.59375 -4.421875 "/></g></g></g><g fill="#000000" fill-opacity="1"><g transform="translate(197.057591, 9.050588)"><g><path d="M 3.03125 -2.90625 C 3.425781 -2.90625 3.734375 -2.976562 3.953125 -3.125 C 4.171875 -3.28125 4.28125 -3.523438 4.28125 -3.859375 C 4.28125 -4.148438 4.171875 -4.363281 3.953125 -4.5 C 3.742188 -4.632812 3.441406 -4.703125 3.046875 -4.703125 L 1.890625 -4.703125 L 1.890625 -2.90625 Z M 3.1875 -5.28125 C 3.4375 -5.28125 3.671875 -5.25 3.890625 -5.1875 C 4.109375 -5.125 4.296875 -5.03125 4.453125 -4.90625 C 4.617188 -4.78125 4.75 -4.625 4.84375 -4.4375 C 4.9375 -4.25 4.984375 -4.035156 4.984375 -3.796875 C 4.984375 -3.453125 4.878906 -3.148438 4.671875 -2.890625 C 4.472656 -2.640625 4.203125 -2.488281 3.859375 -2.4375 L 4.90625 -0.46875 C 4.96875 -0.34375 5.023438 -0.253906 5.078125 -0.203125 C 5.140625 -0.160156 5.21875 -0.140625 5.3125 -0.140625 L 5.3125 0 L 3.96875 0 L 3.96875 -0.140625 C 4.019531 -0.148438 4.066406 -0.164062 4.109375 -0.1875 C 4.160156 -0.207031 4.1875 -0.238281 4.1875 -0.28125 C 4.1875 -0.320312 4.171875 -0.367188 4.140625 -0.421875 C 4.117188 -0.472656 4.097656 -0.523438 4.078125 -0.578125 L 3.171875 -2.28125 L 1.890625 -2.28125 L 1.890625 -0.59375 C 1.890625 -0.445312 1.90625 -0.335938 1.9375 -0.265625 C 1.96875 -0.203125 2.035156 -0.160156 2.140625 -0.140625 L 2.140625 0 L 0.921875 0 L 0.921875 -0.140625 C 1.015625 -0.160156 1.070312 -0.203125 1.09375 -0.265625 C 1.125 -0.335938 1.140625 -0.441406 1.140625 -0.578125 L 1.140625 -4.703125 C 1.140625 -4.828125 1.125 -4.925781 1.09375 -5 C 1.070312 -5.070312 1.015625 -5.117188 0.921875 -5.140625 L 0.921875 -5.28125 Z M 3.1875 -5.28125 "/></g></g></g><g fill="#000000" fill-opacity="1"><g transform="translate(202.619923, 9.050588)"><g/></g></g><g fill="#000000" fill-opacity="1"><g transform="translate(205.185208, 9.050588)"><g><path d="M 3.109375 -0.578125 C 3.503906 -0.578125 3.800781 -0.65625 4 -0.8125 C 4.207031 -0.96875 4.3125 -1.191406 4.3125 -1.484375 C 4.3125 -1.859375 4.195312 -2.109375 3.96875 -2.234375 C 3.738281 -2.359375 3.441406 -2.421875 3.078125 -2.421875 L 1.875 -2.421875 L 1.875 -0.578125 Z M 3.0625 -2.953125 C 3.488281 -2.953125 3.800781 -3.03125 4 -3.1875 C 4.195312 -3.351562 4.296875 -3.585938 4.296875 -3.890625 C 4.296875 -4.171875 4.179688 -4.375 3.953125 -4.5 C 3.734375 -4.632812 3.429688 -4.703125 3.046875 -4.703125 L 1.875 -4.703125 L 1.875 -2.953125 Z M 3.015625 -5.28125 C 3.640625 -5.28125 4.125 -5.160156 4.46875 -4.921875 C 4.8125 -4.691406 4.984375 -4.351562 4.984375 -3.90625 C 4.984375 -3.625 4.894531 -3.367188 4.71875 -3.140625 C 4.550781 -2.921875 4.332031 -2.785156 4.0625 -2.734375 L 4.0625 -2.71875 C 4.40625 -2.613281 4.660156 -2.453125 4.828125 -2.234375 C 5.003906 -2.023438 5.09375 -1.78125 5.09375 -1.5 C 5.09375 -1.238281 5.039062 -1.007812 4.9375 -0.8125 C 4.832031 -0.625 4.691406 -0.46875 4.515625 -0.34375 C 4.347656 -0.226562 4.148438 -0.140625 3.921875 -0.078125 C 3.703125 -0.0234375 3.460938 0 3.203125 0 L 0.890625 0 L 0.890625 -0.140625 C 0.992188 -0.160156 1.054688 -0.207031 1.078125 -0.28125 C 1.109375 -0.351562 1.125 -0.457031 1.125 -0.59375 L 1.125 -4.6875 C 1.125 -4.832031 1.109375 -4.9375 1.078125 -5 C 1.046875 -5.070312 0.972656 -5.117188 0.859375 -5.140625 L 0.859375 -5.28125 Z M 3.015625 -5.28125 "/></g></g></g><g fill="#000000" fill-opacity="1"><g transform="translate(210.74754, 9.050588)"><g><path d="M 2.25 -5.28125 L 2.25 -5.140625 C 2.164062 -5.117188 2.109375 -5.078125 2.078125 -5.015625 C 2.054688 -4.953125 2.046875 -4.851562 2.046875 -4.71875 L 2.046875 -0.5625 C 2.046875 -0.425781 2.054688 -0.328125 2.078125 -0.265625 C 2.109375 -0.203125 2.164062 -0.160156 2.25 -0.140625 L 2.25 0 L 1.078125 0 L 1.078125 -0.140625 C 1.171875 -0.160156 1.226562 -0.203125 1.25 -0.265625 C 1.28125 -0.328125 1.296875 -0.425781 1.296875 -0.5625 L 1.296875 -4.71875 C 1.296875 -4.851562 1.28125 -4.953125 1.25 -5.015625 C 1.226562 -5.078125 1.171875 -5.117188 1.078125 -5.140625 L 1.078125 -5.28125 Z M 2.25 -5.28125 "/></g></g></g><g fill="#000000" fill-opacity="1"><g transform="translate(213.648502, 9.050588)"><g><path d="M 0.34375 -5.5 L 0.484375 -5.5 C 0.503906 -5.40625 0.539062 -5.34375 0.59375 -5.3125 C 0.65625 -5.289062 0.734375 -5.28125 0.828125 -5.28125 L 3.828125 -5.28125 C 3.910156 -5.28125 3.984375 -5.289062 4.046875 -5.3125 C 4.109375 -5.34375 4.144531 -5.40625 4.15625 -5.5 L 4.3125 -5.5 L 4.3125 -4.421875 L 4.15625 -4.421875 C 4.144531 -4.523438 4.109375 -4.597656 4.046875 -4.640625 C 3.992188 -4.679688 3.921875 -4.703125 3.828125 -4.703125 L 2.703125 -4.703125 L 2.703125 -0.578125 C 2.703125 -0.429688 2.71875 -0.328125 2.75 -0.265625 C 2.78125 -0.203125 2.84375 -0.160156 2.9375 -0.140625 L 2.9375 0 L 1.734375 0 L 1.734375 -0.140625 C 1.828125 -0.160156 1.882812 -0.203125 1.90625 -0.265625 C 1.9375 -0.328125 1.953125 -0.425781 1.953125 -0.5625 L 1.953125 -4.703125 L 0.828125 -4.703125 C 0.742188 -4.703125 0.671875 -4.679688 0.609375 -4.640625 C 0.546875 -4.609375 0.503906 -4.535156 0.484375 -4.421875 L 0.34375 -4.421875 Z M 0.34375 -5.5 "/></g></g></g><g fill="#000000" fill-opacity="1"><g transform="translate(217.880138, 9.050588)"><g><path d="M 2.640625 -5.359375 C 2.929688 -5.359375 3.175781 -5.332031 3.375 -5.28125 C 3.582031 -5.226562 3.753906 -5.175781 3.890625 -5.125 C 4.023438 -5.070312 4.113281 -5.046875 4.15625 -5.046875 C 4.195312 -5.046875 4.234375 -5.054688 4.265625 -5.078125 C 4.304688 -5.097656 4.34375 -5.117188 4.375 -5.140625 L 4.46875 -5.09375 L 3.953125 -4.03125 L 3.859375 -4.078125 C 3.859375 -4.109375 3.859375 -4.132812 3.859375 -4.15625 C 3.859375 -4.175781 3.859375 -4.195312 3.859375 -4.21875 C 3.859375 -4.300781 3.8125 -4.378906 3.71875 -4.453125 C 3.632812 -4.523438 3.523438 -4.582031 3.390625 -4.625 C 3.253906 -4.675781 3.109375 -4.710938 2.953125 -4.734375 C 2.804688 -4.765625 2.675781 -4.78125 2.5625 -4.78125 C 2.25 -4.78125 1.988281 -4.703125 1.78125 -4.546875 C 1.570312 -4.390625 1.46875 -4.210938 1.46875 -4.015625 C 1.46875 -3.785156 1.550781 -3.609375 1.71875 -3.484375 C 1.894531 -3.359375 2.195312 -3.253906 2.625 -3.171875 C 2.875 -3.117188 3.113281 -3.0625 3.34375 -3 C 3.582031 -2.9375 3.789062 -2.847656 3.96875 -2.734375 C 4.144531 -2.617188 4.285156 -2.472656 4.390625 -2.296875 C 4.503906 -2.117188 4.5625 -1.878906 4.5625 -1.578125 C 4.5625 -1.304688 4.503906 -1.066406 4.390625 -0.859375 C 4.285156 -0.660156 4.144531 -0.488281 3.96875 -0.34375 C 3.789062 -0.207031 3.582031 -0.101562 3.34375 -0.03125 C 3.113281 0.0390625 2.867188 0.078125 2.609375 0.078125 C 2.367188 0.078125 2.148438 0.0507812 1.953125 0 C 1.765625 -0.0507812 1.597656 -0.101562 1.453125 -0.15625 C 1.316406 -0.21875 1.207031 -0.273438 1.125 -0.328125 C 1.039062 -0.378906 0.984375 -0.40625 0.953125 -0.40625 C 0.890625 -0.40625 0.828125 -0.363281 0.765625 -0.28125 L 0.625 -0.34375 L 1.140625 -1.421875 L 1.265625 -1.359375 C 1.253906 -1.316406 1.242188 -1.285156 1.234375 -1.265625 C 1.234375 -1.242188 1.234375 -1.226562 1.234375 -1.21875 C 1.234375 -1.144531 1.269531 -1.066406 1.34375 -0.984375 C 1.425781 -0.898438 1.53125 -0.820312 1.65625 -0.75 C 1.78125 -0.675781 1.921875 -0.613281 2.078125 -0.5625 C 2.242188 -0.519531 2.421875 -0.5 2.609375 -0.5 C 2.742188 -0.5 2.890625 -0.519531 3.046875 -0.5625 C 3.203125 -0.601562 3.335938 -0.664062 3.453125 -0.75 C 3.578125 -0.832031 3.675781 -0.941406 3.75 -1.078125 C 3.820312 -1.210938 3.859375 -1.378906 3.859375 -1.578125 C 3.859375 -1.722656 3.820312 -1.84375 3.75 -1.9375 C 3.6875 -2.039062 3.59375 -2.125 3.46875 -2.1875 C 3.351562 -2.257812 3.210938 -2.316406 3.046875 -2.359375 C 2.890625 -2.410156 2.710938 -2.457031 2.515625 -2.5 C 2.304688 -2.539062 2.097656 -2.59375 1.890625 -2.65625 C 1.679688 -2.726562 1.492188 -2.816406 1.328125 -2.921875 C 1.160156 -3.023438 1.023438 -3.160156 0.921875 -3.328125 C 0.828125 -3.503906 0.78125 -3.734375 0.78125 -4.015625 C 0.78125 -4.421875 0.953125 -4.742188 1.296875 -4.984375 C 1.640625 -5.234375 2.085938 -5.359375 2.640625 -5.359375 Z M 2.640625 -5.359375 "/></g></g></g><g fill="#000000" fill-opacity="1"><g transform="translate(222.771137, 9.050588)"><g><path d="M 1.5 -1.109375 C 1.65625 -1.109375 1.789062 -1.050781 1.90625 -0.9375 C 2.03125 -0.820312 2.09375 -0.679688 2.09375 -0.515625 C 2.09375 -0.347656 2.03125 -0.207031 1.90625 -0.09375 C 1.789062 0.0195312 1.65625 0.078125 1.5 0.078125 C 1.34375 0.078125 1.203125 0.0195312 1.078125 -0.09375 C 0.960938 -0.207031 0.90625 -0.347656 0.90625 -0.515625 C 0.90625 -0.679688 0.960938 -0.820312 1.078125 -0.9375 C 1.203125 -1.050781 1.34375 -1.109375 1.5 -1.109375 Z M 1.5 -1.109375 "/></g></g></g></g></g></g></svg>